<svg width="829" height="1061" viewBox="0 0 829 1061" fill="none" xmlns="http://www.w3.org/2000/svg">
<g>
<path d="M592.589 647.569C592.589 745.929 512.86 825.657 414.5 825.657C316.139 825.657 236.411 745.929 236.411 647.569C236.411 598.432 256.343 553.888 288.581 521.65C320.819 489.412 365.363 469.48 414.5 469.48C463.637 469.48 508.18 489.412 540.418 521.65C572.656 553.888 592.589 598.432 592.589 647.569Z" fill="#C20002" />
<path d="M275.756 481.266C201.574 434.209 127.999 387.499 54.4233 340.962C46.8838 336.195 35.3579 331.862 41.4241 321.636C47.9237 310.717 58.2364 319.21 65.0826 323.976C132.418 371.12 199.494 418.697 266.656 466.1C271.596 469.567 274.976 473.813 275.756 481.266Z" fill="#C20002" />
<path d="M264.837 413.844C232.859 385.332 200.794 356.907 168.99 328.309C166.65 326.229 165.523 323.196 163.703 320.683C161.71 317.91 161.103 315.31 166.65 311.41C172.976 306.904 174.882 309.157 178.089 311.67C189.528 320.596 197.328 332.209 206.34 342.868C222.806 362.28 240.918 380.306 258.164 399.024C261.717 402.924 263.97 407.777 266.83 412.197C266.137 412.717 265.53 413.237 264.837 413.844Z" fill="#C20002" />
<path d="M322.033 399.024C255.304 319.209 188.748 239.395 121.759 159.753C114.133 150.654 103.82 140.428 112.053 134.708C120.979 128.642 131.898 142.334 137.531 149.527C201.834 231.509 265.357 313.836 329.052 396.078C326.713 397.118 324.373 398.071 322.033 399.024Z" fill="#C20002" />
<path d="M363.023 349.455C354.443 329.349 346.124 310.804 338.498 291.998C325.672 260.194 313.54 228.129 300.714 196.324C298.201 190.085 298.2 185.145 304.267 184.018C309.293 183.065 312.413 188.005 314.059 192.684C331.478 243.121 348.811 293.472 366.056 343.995C366.403 344.862 364.843 346.248 363.023 349.455Z" fill="#C20002" />
<path d="M553.245 481.266C627.427 434.209 701.002 387.499 774.577 340.962C782.117 336.195 793.643 331.862 787.576 321.636C781.077 310.717 770.764 319.21 763.918 323.976C696.582 371.12 629.506 418.697 562.344 466.1C557.491 469.567 554.025 473.813 553.245 481.266Z" fill="#C20002" />
<path d="M564.164 413.844C596.142 385.332 628.206 356.907 660.011 328.309C662.351 326.229 663.477 323.196 665.297 320.683C667.29 317.91 667.897 315.31 662.351 311.41C656.024 306.904 654.118 309.157 650.911 311.67C639.472 320.596 631.673 332.209 622.66 342.868C606.194 362.28 588.082 380.306 570.837 399.024C567.283 402.924 565.03 407.777 562.17 412.197C562.864 412.717 563.557 413.237 564.164 413.844Z" fill="#C20002" />
<path d="M506.967 399.024C573.696 319.209 640.252 239.395 707.241 159.753C714.867 150.654 725.18 140.428 716.947 134.708C708.021 128.642 697.102 142.334 691.469 149.527C627.166 231.509 563.644 313.836 499.948 396.078C502.374 397.118 504.714 398.071 506.967 399.024Z" fill="#C20002" />
<path d="M421.259 337.495C421.693 233.502 421.953 129.509 422.646 25.5154C422.733 13.6428 424.119 -0.829597 414.067 0.0370134C403.321 0.990285 403.667 18.5825 403.927 27.6819C406.7 131.849 410.513 235.755 413.98 339.748C416.493 338.968 418.92 338.275 421.259 337.495Z" fill="#C20002" />
<path d="M465.977 349.455C474.556 329.349 482.876 310.804 490.502 291.998C503.328 260.194 515.46 228.129 528.286 196.324C530.799 190.085 530.799 185.145 524.733 184.018C519.707 183.065 516.587 188.005 514.941 192.684C497.522 243.121 480.189 293.472 462.944 343.995C462.597 344.862 464.157 346.248 465.977 349.455Z" fill="#C20002" />
<path d="M643.112 507.438C667.724 547.908 681.849 595.399 681.849 646.182C681.849 793.853 562.17 913.532 414.5 913.532C266.829 913.532 147.151 793.853 147.151 646.182C147.151 594.879 161.623 546.955 186.668 506.224L60.2294 430.829C22.0119 493.572 0 567.32 0 646.182C0 875.054 185.541 1060.68 414.5 1060.68C643.372 1060.68 829 875.141 829 646.182C829 568.1 807.421 495.132 769.897 432.736L643.112 507.438Z" fill="#C20002" />
</g>
</svg>
