<svg width="196" height="60" viewBox="0 0 196 60" fill="none" xmlns="http://www.w3.org/2000/svg">
<g clip-path="url(#clip0_586_592)">
<path d="M33.3506 36.6791C33.3506 42.2029 28.8725 46.6844 23.3529 46.6844C17.8333 46.6844 13.3551 42.2029 13.3551 36.6791C13.3551 33.9173 14.4694 31.4159 16.2815 29.6025C18.0936 27.789 20.5931 26.6738 23.3529 26.6738C26.1127 26.6738 28.6121 27.7994 30.4242 29.6025C32.2363 31.4159 33.3506 33.9173 33.3506 36.6791Z" fill="#C20002"/>
<path d="M15.5525 27.3309C11.3867 24.6836 7.26266 22.0677 3.12817 19.4517C2.7116 19.1807 2.05549 18.941 2.39917 18.3678C2.76367 17.7529 3.33646 18.2323 3.72179 18.5033C7.50219 21.1505 11.2722 23.829 15.0422 26.4867C15.3129 26.6847 15.5108 26.9244 15.5525 27.3309Z" fill="#C20002"/>
<path d="M14.9379 23.5471C13.1467 21.9421 11.345 20.3475 9.55372 18.7425C9.41834 18.6278 9.35585 18.461 9.26212 18.3151C9.14757 18.1588 9.11632 18.0129 9.42875 17.794C9.78284 17.5439 9.88698 17.669 10.0744 17.8045C10.7097 18.3047 11.1575 18.9613 11.6574 19.5554C12.5843 20.6497 13.6049 21.6607 14.5734 22.7133C14.7713 22.9322 14.8963 23.2031 15.0629 23.4533C15.0212 23.4845 14.99 23.5158 14.9483 23.5471H14.9379Z" fill="#C20002"/>
<path d="M18.156 22.713C14.4068 18.2315 10.6681 13.7395 6.9085 9.26843C6.48151 8.75774 5.89831 8.18452 6.36695 7.86143C6.86684 7.5175 7.48129 8.28874 7.79372 8.69521C11.4075 13.3018 14.9692 17.9293 18.5413 22.5463C18.4059 22.5984 18.2809 22.6505 18.1456 22.713H18.156Z" fill="#C20002"/>
<path d="M20.4576 19.931C19.9786 18.8054 19.5099 17.7528 19.0829 16.7001C18.3644 14.9075 17.6874 13.1149 16.9584 11.3223C16.8126 10.9679 16.8126 10.6969 17.1563 10.6344C17.4375 10.5823 17.6145 10.8533 17.7083 11.1243C18.6872 13.9591 19.6661 16.7939 20.6243 19.6288C20.6451 19.6809 20.5514 19.7538 20.4472 19.9414L20.4576 19.931Z" fill="#C20002"/>
<path d="M31.1323 27.3309C35.2981 24.6836 39.4221 22.0677 43.5566 19.4517C43.9732 19.1807 44.6293 18.941 44.2856 18.3678C43.9211 17.7529 43.3483 18.2323 42.963 18.5033C39.1826 21.1505 35.4126 23.829 31.6426 26.4867C31.3719 26.6847 31.174 26.9244 31.1323 27.3309Z" fill="#C20002"/>
<path d="M31.7467 23.5471C33.5379 21.9421 35.3396 20.3475 37.1309 18.7425C37.2663 18.6278 37.3288 18.461 37.4225 18.3151C37.537 18.1588 37.5683 18.0129 37.2559 17.794C36.9018 17.5439 36.7976 17.669 36.6102 17.8045C35.9749 18.3047 35.5271 18.9613 35.0272 19.5554C34.1003 20.6497 33.0797 21.6607 32.1112 22.7133C31.9133 22.9322 31.7883 23.2031 31.6217 23.4533C31.6634 23.4845 31.6946 23.5158 31.7363 23.5471H31.7467Z" fill="#C20002"/>
<path d="M28.5391 22.713C32.2883 18.2315 36.027 13.7395 39.7866 9.26843C40.2136 8.75774 40.7968 8.18452 40.3282 7.86143C39.8283 7.5175 39.2138 8.28874 38.9014 8.69521C35.2876 13.3018 31.7259 17.9293 28.1538 22.5463C28.2892 22.5984 28.4142 22.6505 28.5496 22.713H28.5391Z" fill="#C20002"/>
<path d="M23.7278 19.2533C23.7486 13.4065 23.7694 7.57004 23.8111 1.72319C23.8111 1.05617 23.8944 0.243241 23.332 0.295352C22.728 0.347462 22.7488 1.33757 22.7592 1.84826C22.9154 7.6951 23.1237 13.542 23.3216 19.3784C23.457 19.3367 23.5924 19.295 23.7278 19.2533Z" fill="#C20002"/>
<path d="M26.2377 19.931C26.7167 18.8054 27.1854 17.7528 27.6124 16.7001C28.3309 14.9075 29.0079 13.1149 29.7369 11.3223C29.8827 10.9679 29.8827 10.6969 29.539 10.6344C29.2578 10.5823 29.0808 10.8533 28.9871 11.1243C28.0081 13.9591 27.0292 16.7939 26.071 19.6288C26.0502 19.6809 26.1439 19.7538 26.2481 19.9414L26.2377 19.931Z" fill="#C20002"/>
<path d="M36.1834 28.8105C37.5685 31.0826 38.36 33.7507 38.36 36.6063C38.36 44.9024 31.6427 51.6247 23.3529 51.6247C15.0631 51.6247 8.34588 44.9024 8.34588 36.6063C8.34588 33.7194 9.1582 31.0305 10.5641 28.748L3.46156 24.5166C1.31621 28.0393 0.0769043 32.1873 0.0769043 36.6168C0.0769043 49.4777 10.4912 59.9103 23.3529 59.9103C36.2146 59.9103 46.629 49.4777 46.629 36.6168C46.629 32.229 45.4209 28.1227 43.3068 24.6208L36.1834 28.821V28.8105Z" fill="#EFEFEF"/>
<path d="M66.7598 52.4475C66.7598 52.6663 66.7702 52.8435 66.8015 52.9894C66.8327 53.1353 66.8952 53.25 66.9889 53.3334C67.0827 53.4167 67.2181 53.4793 67.3951 53.521C67.5721 53.5627 67.7908 53.5731 68.0825 53.5731H68.7802C69.0197 53.5731 69.1968 53.6043 69.3113 53.6669C69.4259 53.7294 69.4884 53.8441 69.4884 54.0004V54.5528C69.4884 54.657 69.4676 54.7404 69.4363 54.8029C69.3947 54.8654 69.353 54.9071 69.2801 54.9384C69.2176 54.9696 69.1343 54.9905 69.051 55.0009C68.9677 55.0113 68.8739 55.0218 68.7698 55.0218H67.6346C67.1972 55.0218 66.8119 54.9905 66.5099 54.9175C66.1975 54.855 65.9475 54.7612 65.7392 54.657C65.5414 54.5423 65.3851 54.4173 65.2706 54.2714C65.1664 54.1255 65.0831 53.9691 65.0311 53.8128C64.5416 54.0525 64.0729 54.2297 63.6355 54.3235C63.1877 54.4277 62.7399 54.4798 62.2921 54.4798C61.8963 54.4798 61.5006 54.4381 61.0944 54.3443C60.6883 54.2505 60.3238 54.115 60.0009 53.917C59.6781 53.719 59.4073 53.4689 59.199 53.1666C58.9907 52.8644 58.8866 52.4892 58.8866 52.0619C58.8866 51.6554 58.9907 51.301 59.1886 50.978C59.3969 50.6549 59.6677 50.3735 60.0009 50.1233C60.3342 49.8732 60.7195 49.6543 61.1465 49.4667C61.5735 49.2791 62.0213 49.1124 62.4691 48.9769C62.9169 48.831 63.3648 48.7163 63.8022 48.6121C64.2396 48.5079 64.6353 48.4141 64.9894 48.3411V47.4865H66.7702V52.4579L66.7598 52.4475ZM64.979 49.6231C64.3229 49.7273 63.7188 49.8419 63.1773 49.9878C62.6358 50.1233 62.1671 50.2901 61.7818 50.4777C61.3964 50.6653 61.0944 50.8737 60.8757 51.103C60.657 51.3323 60.5529 51.5929 60.5529 51.8847C60.5529 52.1244 60.6154 52.3224 60.7403 52.4787C60.8653 52.6351 61.0215 52.7706 61.2194 52.8644C61.4173 52.9582 61.636 53.0311 61.8859 53.0728C62.1255 53.1145 62.3754 53.1353 62.6253 53.1353C63.094 53.1353 63.521 53.0832 63.9167 52.9894C64.3125 52.8956 64.6665 52.7601 64.979 52.583V49.6231ZM61.8026 45.5271C61.8026 45.4125 61.8339 45.2979 61.8859 45.1936C61.938 45.0894 62.0213 44.9956 62.1046 44.9227C62.1984 44.8497 62.3025 44.7872 62.4379 44.7351C62.5629 44.6934 62.7087 44.6621 62.8545 44.6621C63.0003 44.6621 63.1356 44.683 63.2606 44.7351C63.3856 44.7768 63.5001 44.8393 63.5939 44.9227C63.6876 45.006 63.7605 45.0894 63.823 45.1936C63.8751 45.2979 63.9063 45.4125 63.9063 45.5271C63.9063 45.6418 63.8751 45.7564 63.823 45.8607C63.7709 45.9649 63.6876 46.0587 63.5939 46.1316C63.5001 46.2046 63.3856 46.2671 63.2606 46.3088C63.1356 46.3505 62.9898 46.3818 62.8545 46.3818C62.5524 46.3818 62.3129 46.2984 62.1046 46.1316C61.9068 45.9649 61.8026 45.7669 61.8026 45.5271ZM64.6249 45.5271C64.6249 45.4125 64.6561 45.2979 64.7082 45.1936C64.7603 45.0894 64.8436 44.9956 64.9269 44.9227C65.0206 44.8497 65.1248 44.7872 65.2602 44.7351C65.3851 44.6934 65.5309 44.6621 65.6767 44.6621C65.8225 44.6621 65.9579 44.683 66.0829 44.7351C66.2079 44.7768 66.3224 44.8393 66.4162 44.9227C66.5099 45.006 66.5932 45.0894 66.6453 45.1936C66.6973 45.2979 66.7286 45.4125 66.7286 45.5271C66.7286 45.6418 66.6973 45.7564 66.6453 45.8607C66.5932 45.9649 66.5099 46.0587 66.4162 46.1316C66.3224 46.2046 66.2079 46.2671 66.0829 46.3088C65.9579 46.3505 65.8121 46.3818 65.6767 46.3818C65.3747 46.3818 65.1352 46.2984 64.9269 46.1316C64.729 45.9649 64.6249 45.7669 64.6249 45.5271Z" fill="#EFEFEF"/>
<path d="M73.1959 53.0003C73.5396 53.2087 73.9353 53.3547 74.3727 53.438C74.8101 53.5214 75.2996 53.5631 75.8307 53.5631C75.9557 53.2504 76.1223 52.8961 76.341 52.5105C76.5597 52.1248 76.8097 51.7288 77.1013 51.3328C77.4033 50.9367 77.7366 50.5511 78.1219 50.1759C78.5072 49.8007 78.9342 49.4672 79.4028 49.1754C79.8715 48.8835 80.3818 48.6543 80.9337 48.4771C81.4857 48.2999 82.0689 48.2165 82.6938 48.2165C83.454 48.2165 84.0997 48.3207 84.6413 48.5188C85.1828 48.7168 85.6202 48.9982 85.9743 49.363C86.318 49.7173 86.5783 50.1446 86.7345 50.624C86.9012 51.1035 86.9741 51.6246 86.9741 52.1874V53.5631H89.0153C89.2548 53.5631 89.4318 53.5944 89.5464 53.6569C89.661 53.7194 89.7234 53.8341 89.7234 53.9904V54.5428C89.7234 54.647 89.7026 54.7304 89.6714 54.7929C89.6401 54.8554 89.5881 54.8971 89.5152 54.9284C89.4423 54.9597 89.3694 54.9805 89.286 54.9909C89.2027 55.0014 89.109 55.0118 89.0049 55.0118H75.8099C75.5391 55.0118 75.2684 55.0014 74.9976 54.9701C74.7268 54.9388 74.4665 54.8971 74.2061 54.8242C73.9457 54.7617 73.7062 54.6783 73.4667 54.5741C73.2271 54.4698 73.0189 54.3448 72.8314 54.2093C72.6648 54.4386 72.4461 54.6262 72.1545 54.7825C71.8733 54.9388 71.5088 55.0118 71.0714 55.0118H68.7386C68.499 55.0118 68.322 54.9805 68.2074 54.918C68.0929 54.8555 68.0304 54.7408 68.0304 54.5845V54.0321C68.0304 53.9279 68.0512 53.8445 68.0825 53.782C68.1137 53.7194 68.1658 53.6777 68.2387 53.6465C68.3012 53.6152 68.3845 53.5944 68.4678 53.5839C68.5511 53.5735 68.6448 53.5631 68.749 53.5631H70.7173C70.9256 53.5631 71.0922 53.4901 71.2172 53.3338C71.3422 53.1879 71.4046 52.9586 71.4046 52.6459V50.3426H73.1855V52.9795L73.1959 53.0003ZM85.1932 52.3541C85.1932 51.833 85.1203 51.3953 84.9849 51.0514C84.8391 50.7074 84.6517 50.426 84.4017 50.2072C84.1622 49.9987 83.8706 49.8424 83.5373 49.759C83.2041 49.6756 82.85 49.6235 82.4751 49.6235C82.0689 49.6235 81.6732 49.686 81.2983 49.8007C80.9233 49.9153 80.5692 50.0717 80.236 50.2697C79.9027 50.4677 79.6007 50.697 79.3195 50.9576C79.0383 51.2181 78.7884 51.4891 78.5593 51.7809C78.3302 52.0727 78.1427 52.375 77.9761 52.6772C77.8095 52.9795 77.6845 53.2817 77.5907 53.5631H85.1932V52.3541ZM79.0071 45.9236C79.0071 45.809 79.0383 45.6943 79.0904 45.5901C79.1425 45.4859 79.2154 45.3921 79.3091 45.3191C79.4028 45.2462 79.507 45.1837 79.6424 45.1315C79.7673 45.0899 79.9131 45.0586 80.0589 45.0586C80.2047 45.0586 80.3401 45.0794 80.4651 45.1315C80.5901 45.1732 80.7046 45.2358 80.7984 45.3191C80.8921 45.3921 80.965 45.4859 81.0275 45.5901C81.0796 45.6943 81.1108 45.809 81.1108 45.9236C81.1108 46.0383 81.0796 46.1529 81.0275 46.2571C80.9754 46.3614 80.8921 46.4552 80.7984 46.5281C80.7046 46.6011 80.5901 46.6636 80.4651 46.7053C80.3401 46.747 80.1943 46.7783 80.0589 46.7783C79.7569 46.7783 79.5174 46.6949 79.3091 46.5281C79.1112 46.3614 79.0071 46.1633 79.0071 45.9236Z" fill="#EFEFEF"/>
<path d="M92.8687 54.5529C92.8687 54.6571 92.8479 54.7405 92.8166 54.8031C92.775 54.8656 92.7333 54.9073 92.6604 54.9385C92.5875 54.9698 92.5146 54.9907 92.4313 55.0011C92.348 55.0115 92.2542 55.0219 92.1501 55.0219H89.005C88.9008 55.0219 88.8175 55.0219 88.7238 55.0011C88.6405 55.0011 88.5571 54.9698 88.4947 54.9385C88.4322 54.9073 88.3801 54.8552 88.3384 54.8031C88.2968 54.7405 88.2864 54.6571 88.2864 54.5529V54.0006C88.2864 53.8442 88.3489 53.74 88.4634 53.667C88.578 53.5941 88.7654 53.5732 88.9946 53.5732H92.1397C92.3792 53.5732 92.5563 53.6045 92.6708 53.667C92.7854 53.7296 92.8478 53.8442 92.8478 54.0006V54.5529H92.8687Z" fill="#EFEFEF"/>
<path d="M96.0137 54.5529C96.0137 54.6571 95.9929 54.7405 95.9616 54.8031C95.92 54.8656 95.8783 54.9073 95.8054 54.9385C95.7325 54.9698 95.6596 54.9907 95.5763 55.0011C95.493 55.0115 95.3993 55.0219 95.2951 55.0219H92.15C92.0458 55.0219 91.9625 55.0219 91.8688 55.0011C91.7855 55.0011 91.7022 54.9698 91.6397 54.9385C91.5772 54.9073 91.5251 54.8552 91.4835 54.8031C91.4418 54.7405 91.4314 54.6571 91.4314 54.5529V54.0006C91.4314 53.8442 91.4939 53.74 91.6084 53.667C91.723 53.5941 91.9105 53.5732 92.1396 53.5732H95.2847C95.5242 53.5732 95.7013 53.6045 95.8158 53.667C95.9304 53.7296 95.9929 53.8442 95.9929 54.0006V54.5529H96.0137Z" fill="#EFEFEF"/>
<path d="M99.1587 54.5529C99.1587 54.6571 99.1379 54.7405 99.1066 54.8031C99.065 54.8656 99.0233 54.9073 98.9504 54.9385C98.8775 54.9698 98.8046 54.9907 98.7213 55.0011C98.638 55.0115 98.5443 55.0219 98.4401 55.0219H95.295C95.1909 55.0219 95.1075 55.0219 95.0138 55.0011C94.9305 55.0011 94.8472 54.9698 94.7847 54.9385C94.7222 54.9073 94.6701 54.8552 94.6285 54.8031C94.5868 54.7405 94.5764 54.6571 94.5764 54.5529V54.0006C94.5764 53.8442 94.6389 53.74 94.7535 53.667C94.868 53.5941 95.0555 53.5732 95.2846 53.5732H98.4297C98.6692 53.5732 98.8463 53.6045 98.9608 53.667C99.0754 53.7296 99.1379 53.8442 99.1379 54.0006V54.5529H99.1587Z" fill="#EFEFEF"/>
<path d="M102.293 54.5529C102.293 54.6571 102.273 54.7405 102.241 54.8031C102.21 54.8656 102.158 54.9073 102.085 54.9385C102.012 54.9698 101.939 54.9907 101.856 55.0011C101.773 55.0115 101.679 55.0219 101.575 55.0219H98.4298C98.3256 55.0219 98.2423 55.0219 98.1486 55.0011C98.0653 55.0011 97.982 54.9698 97.9195 54.9385C97.857 54.9073 97.8049 54.8552 97.7633 54.8031C97.7216 54.7405 97.7112 54.6571 97.7112 54.5529V54.0006C97.7112 53.8442 97.7737 53.74 97.8882 53.667C98.0028 53.5941 98.1902 53.5732 98.4194 53.5732H101.564C101.804 53.5732 101.981 53.6045 102.096 53.667C102.21 53.7296 102.273 53.8442 102.273 54.0006V54.5529H102.293Z" fill="#EFEFEF"/>
<path d="M105.439 54.5529C105.439 54.6571 105.418 54.7405 105.387 54.8031C105.355 54.8656 105.303 54.9073 105.23 54.9385C105.157 54.9698 105.085 54.9907 105.001 55.0011C104.918 55.0115 104.824 55.0219 104.72 55.0219H101.575C101.481 55.0219 101.387 55.0219 101.294 55.0011C101.21 55.0011 101.127 54.9698 101.065 54.9385C101.002 54.9073 100.95 54.8552 100.908 54.8031C100.877 54.7405 100.856 54.6571 100.856 54.5529V54.0006C100.856 53.8442 100.919 53.74 101.033 53.667C101.148 53.5941 101.335 53.5732 101.564 53.5732H104.71C104.949 53.5732 105.126 53.6045 105.241 53.667C105.355 53.7296 105.418 53.8442 105.418 54.0006V54.5529H105.439Z" fill="#EFEFEF"/>
<path d="M108.573 54.5529C108.573 54.6571 108.553 54.7405 108.521 54.8031C108.49 54.8656 108.438 54.9073 108.365 54.9385C108.292 54.9698 108.219 54.9907 108.136 55.0011C108.053 55.0115 107.959 55.0219 107.855 55.0219H104.71C104.616 55.0219 104.522 55.0219 104.428 55.0011C104.345 55.0011 104.262 54.9698 104.199 54.9385C104.137 54.9073 104.085 54.8552 104.043 54.8031C104.012 54.7405 103.991 54.6571 103.991 54.5529V54.0006C103.991 53.8442 104.054 53.74 104.168 53.667C104.283 53.5941 104.47 53.5732 104.699 53.5732H107.844C108.084 53.5732 108.261 53.6045 108.376 53.667C108.49 53.7296 108.553 53.8442 108.553 54.0006V54.5529H108.573Z" fill="#EFEFEF"/>
<path d="M111.718 54.5529C111.718 54.6571 111.698 54.7405 111.666 54.8031C111.635 54.8656 111.583 54.9073 111.51 54.9385C111.437 54.9698 111.364 54.9907 111.281 55.0011C111.198 55.0115 111.104 55.0219 111 55.0219H107.855C107.761 55.0219 107.667 55.0219 107.574 55.0011C107.49 55.0011 107.407 54.9698 107.344 54.9385C107.282 54.9073 107.23 54.8552 107.188 54.8031C107.157 54.7405 107.136 54.6571 107.136 54.5529V54.0006C107.136 53.8442 107.199 53.74 107.313 53.667C107.428 53.5941 107.615 53.5732 107.844 53.5732H110.989C111.229 53.5732 111.406 53.6045 111.521 53.667C111.635 53.7296 111.698 53.8442 111.698 54.0006V54.5529H111.718Z" fill="#EFEFEF"/>
<path d="M114.853 54.5529C114.853 54.6571 114.832 54.7405 114.801 54.8031C114.77 54.8656 114.718 54.9073 114.645 54.9385C114.572 54.9698 114.499 54.9907 114.416 55.0011C114.332 55.0115 114.239 55.0219 114.135 55.0219H110.989C110.896 55.0219 110.802 55.0219 110.708 55.0011C110.625 55.0011 110.542 54.9698 110.479 54.9385C110.417 54.9073 110.365 54.8552 110.323 54.8031C110.292 54.7405 110.271 54.6571 110.271 54.5529V54.0006C110.271 53.8442 110.333 53.74 110.448 53.667C110.562 53.5941 110.75 53.5732 110.979 53.5732H114.124C114.364 53.5732 114.541 53.6045 114.655 53.667C114.77 53.7296 114.832 53.8442 114.832 54.0006V54.5529H114.853Z" fill="#EFEFEF"/>
<path d="M117.998 54.5529C117.998 54.6571 117.977 54.7405 117.946 54.8031C117.915 54.8656 117.863 54.9073 117.79 54.9385C117.717 54.9698 117.644 54.9907 117.561 55.0011C117.478 55.0115 117.384 55.0219 117.28 55.0219H114.135C114.041 55.0219 113.947 55.0219 113.853 55.0011C113.77 55.0011 113.687 54.9698 113.624 54.9385C113.562 54.9073 113.51 54.8552 113.468 54.8031C113.437 54.7405 113.416 54.6571 113.416 54.5529V54.0006C113.416 53.8442 113.478 53.74 113.593 53.667C113.708 53.5941 113.895 53.5732 114.124 53.5732H117.269C117.509 53.5732 117.686 53.6045 117.8 53.667C117.915 53.7296 117.977 53.8442 117.977 54.0006V54.5529H117.998Z" fill="#EFEFEF"/>
<path d="M121.133 54.5529C121.133 54.6571 121.112 54.7405 121.081 54.8031C121.05 54.8656 120.998 54.9073 120.925 54.9385C120.852 54.9698 120.779 54.9907 120.696 55.0011C120.612 55.0115 120.519 55.0219 120.414 55.0219H117.269C117.176 55.0219 117.082 55.0219 116.988 55.0011C116.905 55.0011 116.822 54.9698 116.759 54.9385C116.697 54.9073 116.645 54.8552 116.603 54.8031C116.572 54.7405 116.551 54.6571 116.551 54.5529V54.0006C116.551 53.8442 116.613 53.74 116.728 53.667C116.842 53.5941 117.03 53.5732 117.259 53.5732H120.404C120.644 53.5732 120.821 53.6045 120.935 53.667C121.05 53.7296 121.112 53.8442 121.112 54.0006V54.5529H121.133Z" fill="#EFEFEF"/>
<path d="M124.278 54.5529C124.278 54.6571 124.257 54.7405 124.226 54.8031C124.195 54.8656 124.143 54.9073 124.07 54.9385C123.997 54.9698 123.924 54.9907 123.841 55.0011C123.757 55.0115 123.664 55.0219 123.56 55.0219H120.414C120.321 55.0219 120.227 55.0219 120.133 55.0011C120.05 55.0011 119.967 54.9698 119.904 54.9385C119.842 54.9073 119.79 54.8552 119.748 54.8031C119.717 54.7405 119.696 54.6571 119.696 54.5529V54.0006C119.696 53.8442 119.758 53.74 119.873 53.667C119.987 53.5941 120.175 53.5732 120.404 53.5732H123.549C123.789 53.5732 123.966 53.6045 124.08 53.667C124.195 53.7296 124.257 53.8442 124.257 54.0006V54.5529H124.278Z" fill="#EFEFEF"/>
<path d="M127.413 54.5529C127.413 54.6571 127.392 54.7405 127.361 54.8031C127.33 54.8656 127.277 54.9073 127.205 54.9385C127.132 54.9698 127.059 54.9907 126.975 55.0011C126.892 55.0115 126.798 55.0219 126.694 55.0219H123.549C123.455 55.0219 123.362 55.0219 123.268 55.0011C123.185 55.0011 123.101 54.9698 123.039 54.9385C122.976 54.9073 122.924 54.8552 122.883 54.8031C122.851 54.7405 122.831 54.6571 122.831 54.5529V54.0006C122.831 53.8442 122.893 53.74 123.008 53.667C123.122 53.5941 123.31 53.5732 123.539 53.5732H126.684C126.923 53.5732 127.1 53.6045 127.215 53.667C127.33 53.7296 127.392 53.8442 127.392 54.0006V54.5529H127.413Z" fill="#EFEFEF"/>
<path d="M130.558 54.5529C130.558 54.6571 130.537 54.7405 130.506 54.8031C130.475 54.8656 130.423 54.9073 130.35 54.9385C130.277 54.9698 130.204 54.9907 130.12 55.0011C130.037 55.0115 129.943 55.0219 129.839 55.0219H126.694C126.6 55.0219 126.507 55.0219 126.413 55.0011C126.33 55.0011 126.246 54.9698 126.184 54.9385C126.121 54.9073 126.069 54.8552 126.028 54.8031C125.996 54.7405 125.976 54.6571 125.976 54.5529V54.0006C125.976 53.8442 126.038 53.74 126.153 53.667C126.267 53.5941 126.455 53.5732 126.684 53.5732H129.829C130.068 53.5732 130.245 53.6045 130.36 53.667C130.475 53.7296 130.537 53.8442 130.537 54.0006V54.5529H130.558Z" fill="#EFEFEF"/>
<path d="M133.693 54.5529C133.693 54.6571 133.672 54.7405 133.641 54.8031C133.609 54.8656 133.557 54.9073 133.484 54.9385C133.411 54.9698 133.339 54.9907 133.255 55.0011C133.172 55.0115 133.078 55.0219 132.974 55.0219H129.829C129.735 55.0219 129.641 55.0219 129.548 55.0011C129.464 55.0011 129.381 54.9698 129.319 54.9385C129.256 54.9073 129.204 54.8552 129.162 54.8031C129.131 54.7405 129.11 54.6571 129.11 54.5529V54.0006C129.11 53.8442 129.173 53.74 129.287 53.667C129.402 53.5941 129.589 53.5732 129.819 53.5732H132.964C133.203 53.5732 133.38 53.6045 133.495 53.667C133.609 53.7296 133.672 53.8442 133.672 54.0006V54.5529H133.693Z" fill="#EFEFEF"/>
<path d="M136.838 54.5529C136.838 54.6571 136.817 54.7405 136.786 54.8031C136.755 54.8656 136.703 54.9073 136.63 54.9385C136.557 54.9698 136.484 54.9907 136.401 55.0011C136.317 55.0115 136.223 55.0219 136.119 55.0219H132.974C132.88 55.0219 132.787 55.0219 132.693 55.0011C132.61 55.0011 132.526 54.9698 132.464 54.9385C132.401 54.9073 132.349 54.8552 132.308 54.8031C132.276 54.7405 132.256 54.6571 132.256 54.5529V54.0006C132.256 53.8442 132.318 53.74 132.433 53.667C132.547 53.5941 132.735 53.5732 132.964 53.5732H136.109C136.348 53.5732 136.525 53.6045 136.64 53.667C136.755 53.7296 136.817 53.8442 136.817 54.0006V54.5529H136.838Z" fill="#EFEFEF"/>
<path d="M139.973 54.5529C139.973 54.6571 139.952 54.7405 139.92 54.8031C139.889 54.8656 139.837 54.9073 139.764 54.9385C139.691 54.9698 139.618 54.9907 139.535 55.0011C139.452 55.0115 139.358 55.0219 139.254 55.0219H136.109C136.015 55.0219 135.921 55.0219 135.828 55.0011C135.744 55.0011 135.661 54.9698 135.599 54.9385C135.536 54.9073 135.484 54.8552 135.442 54.8031C135.411 54.7405 135.39 54.6571 135.39 54.5529V54.0006C135.39 53.8442 135.453 53.74 135.567 53.667C135.682 53.5941 135.869 53.5732 136.098 53.5732H139.244C139.483 53.5732 139.66 53.6045 139.775 53.667C139.889 53.7296 139.952 53.8442 139.952 54.0006V54.5529H139.973Z" fill="#EFEFEF"/>
<path d="M143.118 54.5529C143.118 54.6571 143.097 54.7405 143.066 54.8031C143.034 54.8656 142.982 54.9073 142.909 54.9385C142.837 54.9698 142.764 54.9907 142.68 55.0011C142.597 55.0115 142.503 55.0219 142.399 55.0219H139.254C139.16 55.0219 139.067 55.0219 138.973 55.0011C138.889 55.0011 138.806 54.9698 138.744 54.9385C138.681 54.9073 138.629 54.8552 138.587 54.8031C138.556 54.7405 138.535 54.6571 138.535 54.5529V54.0006C138.535 53.8442 138.598 53.74 138.712 53.667C138.827 53.5941 139.014 53.5732 139.244 53.5732H142.389C142.628 53.5732 142.805 53.6045 142.92 53.667C143.034 53.7296 143.097 53.8442 143.097 54.0006V54.5529H143.118Z" fill="#EFEFEF"/>
<path d="M146.263 54.5529C146.263 54.6571 146.242 54.7405 146.211 54.8031C146.18 54.8656 146.127 54.9073 146.055 54.9385C145.982 54.9698 145.909 54.9907 145.825 55.0011C145.742 55.0115 145.648 55.0219 145.544 55.0219H142.399C142.305 55.0219 142.212 55.0219 142.118 55.0011C142.035 55.0011 141.951 54.9698 141.889 54.9385C141.826 54.9073 141.774 54.8552 141.733 54.8031C141.701 54.7405 141.681 54.6571 141.681 54.5529V54.0006C141.681 53.8442 141.743 53.74 141.858 53.667C141.972 53.5941 142.16 53.5732 142.389 53.5732H145.534C145.773 53.5732 145.95 53.6045 146.065 53.667C146.18 53.7296 146.242 53.8442 146.242 54.0006V54.5529H146.263Z" fill="#EFEFEF"/>
<path d="M149.398 54.5529C149.398 54.6571 149.377 54.7405 149.346 54.8031C149.314 54.8656 149.262 54.9073 149.189 54.9385C149.116 54.9698 149.044 54.9907 148.96 55.0011C148.877 55.0115 148.783 55.0219 148.679 55.0219H145.534C145.44 55.0219 145.346 55.0219 145.253 55.0011C145.169 55.0011 145.086 54.9698 145.024 54.9385C144.961 54.9073 144.909 54.8552 144.867 54.8031C144.836 54.7405 144.815 54.6571 144.815 54.5529V54.0006C144.815 53.8442 144.878 53.74 144.992 53.667C145.107 53.5941 145.294 53.5732 145.523 53.5732H148.669C148.908 53.5732 149.085 53.6045 149.2 53.667C149.314 53.7296 149.377 53.8442 149.377 54.0006V54.5529H149.398Z" fill="#EFEFEF"/>
<path d="M152.543 54.5529C152.543 54.6571 152.522 54.7405 152.491 54.8031C152.459 54.8656 152.407 54.9073 152.334 54.9385C152.261 54.9698 152.189 54.9907 152.105 55.0011C152.022 55.0115 151.928 55.0219 151.824 55.0219H148.679C148.585 55.0219 148.491 55.0219 148.398 55.0011C148.314 55.0011 148.231 54.9698 148.169 54.9385C148.106 54.9073 148.054 54.8552 148.012 54.8031C147.981 54.7405 147.96 54.6571 147.96 54.5529V54.0006C147.96 53.8442 148.023 53.74 148.137 53.667C148.252 53.5941 148.439 53.5732 148.668 53.5732H151.814C152.053 53.5732 152.23 53.6045 152.345 53.667C152.459 53.7296 152.522 53.8442 152.522 54.0006V54.5529H152.543Z" fill="#EFEFEF"/>
<path d="M155.677 54.5529C155.677 54.6571 155.656 54.7405 155.625 54.8031C155.594 54.8656 155.542 54.9073 155.469 54.9385C155.396 54.9698 155.323 54.9907 155.24 55.0011C155.157 55.0115 155.063 55.0219 154.959 55.0219H151.814C151.72 55.0219 151.626 55.0219 151.532 55.0011C151.449 55.0011 151.366 54.9698 151.303 54.9385C151.241 54.9073 151.189 54.8552 151.147 54.8031C151.116 54.7405 151.095 54.6571 151.095 54.5529V54.0006C151.095 53.8442 151.157 53.74 151.272 53.667C151.387 53.5941 151.574 53.5732 151.803 53.5732H154.948C155.188 53.5732 155.365 53.6045 155.479 53.667C155.594 53.7296 155.656 53.8442 155.656 54.0006V54.5529H155.677Z" fill="#EFEFEF"/>
<path d="M158.823 54.5529C158.823 54.6571 158.802 54.7405 158.77 54.8031C158.739 54.8656 158.687 54.9073 158.614 54.9385C158.541 54.9698 158.468 54.9907 158.385 55.0011C158.302 55.0115 158.208 55.0219 158.104 55.0219H154.959C154.865 55.0219 154.771 55.0219 154.678 55.0011C154.594 55.0011 154.511 54.9698 154.449 54.9385C154.386 54.9073 154.334 54.8552 154.292 54.8031C154.261 54.7405 154.24 54.6571 154.24 54.5529V54.0006C154.24 53.8442 154.303 53.74 154.417 53.667C154.532 53.5941 154.719 53.5732 154.948 53.5732H158.094C158.333 53.5732 158.51 53.6045 158.625 53.667C158.739 53.7296 158.802 53.8442 158.802 54.0006V54.5529H158.823Z" fill="#EFEFEF"/>
<path d="M161.957 54.5529C161.957 54.6571 161.936 54.7405 161.905 54.8031C161.874 54.8656 161.822 54.9073 161.749 54.9385C161.676 54.9698 161.603 54.9907 161.52 55.0011C161.436 55.0115 161.343 55.0219 161.239 55.0219H158.093C158 55.0219 157.906 55.0219 157.812 55.0011C157.729 55.0011 157.646 54.9698 157.583 54.9385C157.521 54.9073 157.469 54.8552 157.427 54.8031C157.396 54.7405 157.375 54.6571 157.375 54.5529V54.0006C157.375 53.8442 157.437 53.74 157.552 53.667C157.666 53.5941 157.854 53.5732 158.083 53.5732H161.228C161.468 53.5732 161.645 53.6045 161.759 53.667C161.874 53.7296 161.936 53.8442 161.936 54.0006V54.5529H161.957Z" fill="#EFEFEF"/>
<path d="M165.102 54.5529C165.102 54.6571 165.081 54.7405 165.05 54.8031C165.019 54.8656 164.967 54.9073 164.894 54.9385C164.821 54.9698 164.748 54.9907 164.665 55.0011C164.582 55.0115 164.488 55.0219 164.384 55.0219H161.239C161.145 55.0219 161.051 55.0219 160.957 55.0011C160.874 55.0011 160.791 54.9698 160.728 54.9385C160.666 54.9073 160.614 54.8552 160.572 54.8031C160.541 54.7405 160.52 54.6571 160.52 54.5529V54.0006C160.52 53.8442 160.583 53.74 160.697 53.667C160.812 53.5941 160.999 53.5732 161.228 53.5732H164.373C164.613 53.5732 164.79 53.6045 164.904 53.667C165.019 53.7296 165.082 53.8442 165.082 54.0006V54.5529H165.102Z" fill="#EFEFEF"/>
<path d="M168.237 54.5529C168.237 54.6571 168.216 54.7405 168.185 54.8031C168.154 54.8656 168.102 54.9073 168.029 54.9385C167.956 54.9698 167.883 54.9907 167.8 55.0011C167.716 55.0115 167.623 55.0219 167.518 55.0219H164.373C164.28 55.0219 164.186 55.0219 164.092 55.0011C164.009 55.0011 163.925 54.9698 163.863 54.9385C163.8 54.9073 163.748 54.8552 163.707 54.8031C163.675 54.7405 163.655 54.6571 163.655 54.5529V54.0006C163.655 53.8442 163.717 53.74 163.832 53.667C163.946 53.5941 164.134 53.5732 164.363 53.5732H167.508C167.747 53.5732 167.925 53.6045 168.039 53.667C168.154 53.7296 168.216 53.8442 168.216 54.0006V54.5529H168.237Z" fill="#EFEFEF"/>
<path d="M167.529 55.0118C167.289 55.0118 167.112 54.9806 166.998 54.918C166.883 54.8555 166.821 54.7409 166.821 54.5845V54.0322C166.821 53.9279 166.841 53.8446 166.873 53.782C166.914 53.7195 166.956 53.6778 167.029 53.6465C167.102 53.6153 167.175 53.5944 167.258 53.584C167.341 53.5736 167.435 53.5632 167.539 53.5632H169.924C170.091 52.9483 170.299 52.3959 170.549 51.9165C170.799 51.437 171.07 51.0097 171.361 50.6345C171.653 50.2698 171.955 49.9571 172.257 49.707C172.559 49.4568 172.861 49.2484 173.142 49.0816C173.423 48.9149 173.673 48.8002 173.902 48.7273C174.132 48.6543 174.309 48.623 174.454 48.623C174.829 48.623 175.183 48.7064 175.506 48.8836C175.829 49.0504 176.121 49.2796 176.36 49.561C176.6 49.8424 176.787 50.1551 176.933 50.5095C177.068 50.8638 177.141 51.2182 177.141 51.5725C177.141 51.979 177.058 52.3542 176.881 52.6773C176.704 53.0004 176.475 53.2922 176.183 53.5423V53.584H179.224C179.464 53.584 179.641 53.6153 179.755 53.6778C179.87 53.7403 179.932 53.855 179.932 54.0113V54.5637C179.932 54.6679 179.911 54.7513 179.88 54.8138C179.839 54.8764 179.797 54.918 179.724 54.9493C179.662 54.9806 179.578 55.0014 179.495 55.0118C179.412 55.0223 179.318 55.0327 179.214 55.0327H175.954V55.0744C176.246 55.2932 176.485 55.5642 176.683 55.8977C176.881 56.2312 176.985 56.6273 176.985 57.0963C176.985 57.534 176.891 57.9196 176.704 58.2531C176.516 58.5867 176.277 58.8681 175.985 59.0973C175.694 59.3266 175.371 59.5038 175.017 59.6185C174.663 59.7435 174.319 59.7956 173.986 59.7956C173.715 59.7956 173.423 59.7644 173.111 59.7123C172.798 59.6497 172.486 59.5559 172.163 59.41C171.851 59.2641 171.538 59.0765 171.247 58.8368C170.945 58.5971 170.684 58.3053 170.455 57.9509C170.226 57.5966 170.049 57.1797 169.914 56.7002C169.778 56.2208 169.705 55.658 169.705 55.0327H167.529V55.0118ZM171.33 55.0118C171.33 55.6163 171.424 56.1374 171.601 56.5648C171.778 56.9921 172.007 57.3464 172.288 57.607C172.559 57.8779 172.861 58.0655 173.184 58.1906C173.507 58.3157 173.819 58.3782 174.1 58.3782C174.288 58.3782 174.454 58.3365 174.611 58.2531C174.767 58.1698 174.902 58.0655 175.017 57.9301C175.131 57.7946 175.215 57.6382 175.277 57.4715C175.34 57.2943 175.371 57.1171 175.371 56.9295C175.371 56.6794 175.319 56.4397 175.215 56.2104C175.11 55.9811 174.965 55.7727 174.777 55.5955C174.59 55.4183 174.361 55.2724 174.09 55.1682C173.819 55.064 173.517 55.0118 173.184 55.0118H171.32H171.33ZM175.548 51.8643C175.548 51.6351 175.506 51.4162 175.423 51.1973C175.34 50.9785 175.225 50.8013 175.09 50.6345C174.954 50.4678 174.798 50.3427 174.621 50.2385C174.444 50.1343 174.277 50.0926 174.111 50.0926C174.007 50.0926 173.882 50.1343 173.736 50.2281C173.58 50.3114 173.423 50.4365 173.246 50.5928C173.069 50.7492 172.892 50.9368 172.715 51.1556C172.538 51.3745 172.372 51.6142 172.215 51.8643C172.059 52.1249 171.934 52.3959 171.82 52.6877C171.705 52.9795 171.632 53.2713 171.601 53.5736H173.278C173.611 53.5736 173.923 53.5319 174.204 53.4485C174.486 53.3651 174.725 53.2401 174.923 53.0942C175.121 52.9483 175.277 52.7607 175.392 52.5522C175.496 52.3438 175.558 52.1145 175.558 51.8748L175.548 51.8643Z" fill="#EFEFEF"/>
<path d="M183.671 53.0733C183.973 53.24 184.317 53.3651 184.723 53.4485C185.129 53.5318 185.608 53.5735 186.171 53.5735H186.254C186.493 53.5735 186.67 53.6048 186.785 53.6673C186.9 53.7299 186.962 53.8445 186.962 54.0008V54.5532C186.962 54.6574 186.941 54.7408 186.91 54.8033C186.868 54.8659 186.827 54.9076 186.754 54.9388C186.681 54.9701 186.608 54.9909 186.525 55.0014C186.441 55.0118 186.348 55.0222 186.244 55.0222H186.15C185.462 55.0222 184.89 54.9493 184.431 54.8033C183.973 54.6574 183.588 54.4803 183.265 54.2614C183.098 54.4803 182.88 54.6574 182.609 54.8033C182.338 54.9493 181.984 55.0222 181.567 55.0222H179.203C178.964 55.0222 178.787 54.9909 178.672 54.9284C178.558 54.8659 178.495 54.7512 178.495 54.5949V54.0425C178.495 53.9383 178.516 53.8549 178.547 53.7924C178.589 53.7299 178.631 53.6882 178.704 53.6569C178.776 53.6256 178.849 53.6048 178.933 53.5944C179.016 53.5839 179.11 53.5735 179.214 53.5735H181.213C181.422 53.5735 181.588 53.5006 181.713 53.3442C181.838 53.1983 181.901 52.969 181.901 52.6564V48.8106H183.682V53.0733H183.671ZM181.651 45.9236C181.651 45.809 181.682 45.6943 181.734 45.5901C181.786 45.4859 181.859 45.3921 181.953 45.3191C182.047 45.2462 182.151 45.1837 182.286 45.1315C182.411 45.0899 182.546 45.0586 182.692 45.0586C182.838 45.0586 182.973 45.0794 183.109 45.1315C183.234 45.1732 183.348 45.2358 183.442 45.3191C183.536 45.4025 183.609 45.4859 183.671 45.5901C183.723 45.6943 183.754 45.809 183.754 45.9236C183.754 46.0383 183.723 46.1529 183.671 46.2571C183.619 46.3614 183.536 46.4552 183.442 46.5281C183.348 46.6011 183.234 46.6636 183.109 46.7053C182.984 46.747 182.838 46.7783 182.692 46.7783C182.39 46.7783 182.151 46.6949 181.942 46.5281C181.745 46.3614 181.64 46.1633 181.64 45.9236H181.651Z" fill="#EFEFEF"/>
<path d="M186.275 55.0116C186.035 55.0116 185.858 54.9804 185.744 54.9179C185.629 54.8553 185.567 54.7407 185.567 54.5843V54.032C185.567 53.9277 185.587 53.8444 185.619 53.7818C185.66 53.7193 185.702 53.6776 185.775 53.6463C185.848 53.6151 185.921 53.5942 186.004 53.5838C186.087 53.5734 186.181 53.563 186.285 53.563H188.982V43.4639H190.763V55.0116H186.285H186.275Z" fill="#EFEFEF"/>
<path d="M194.117 43.4746H195.898V55.0224H194.117V43.4746Z" fill="#EFEFEF"/>
<path d="M58.97 38.232L67.0619 21.1709H70.3425L78.3719 38.232H74.9352L70.155 27.9453C70.0925 27.8307 69.978 27.5597 69.8113 27.122C69.6447 26.6842 69.4468 26.1944 69.2281 25.6629C69.0094 25.1313 68.8116 24.6311 68.6345 24.1829C68.4575 23.7348 68.3325 23.4429 68.2804 23.3179L68.9678 23.297C68.8532 23.5784 68.7074 23.9224 68.5304 24.3497C68.3637 24.777 68.1867 25.2147 67.9888 25.6941C67.8014 26.1631 67.6139 26.6113 67.4369 27.0177C67.2598 27.4346 67.1036 27.7786 66.989 28.0495L62.2401 38.232H58.9596H58.97ZM62.5525 33.9902L63.7502 31.4576H73.2481L74.6227 33.9902H62.563H62.5525Z" fill="#C20002"/>
<path d="M82.0586 38.232V21.1709H85.287V35.689H95.0869V38.2216H82.069L82.0586 38.232Z" fill="#C20002"/>
<path d="M108.303 38.232V21.1709H111.198L123.976 35.1366L123.497 35.3555C123.362 34.6885 123.247 33.9172 123.153 33.0418C123.06 32.1663 122.997 31.197 122.956 30.1444C122.914 29.0918 122.893 27.9662 122.893 26.778V21.1709H126.122V38.232H123.164L110.594 24.777L110.927 24.433C111.062 25.6629 111.177 26.6738 111.26 27.4659C111.344 28.258 111.396 28.8833 111.437 29.3523C111.479 29.8213 111.5 30.1965 111.51 30.4571C111.51 30.728 111.521 30.9469 111.521 31.1241V38.2112H108.292L108.303 38.232Z" fill="#C20002"/>
<path d="M135.807 38.4716C134.797 38.4716 133.891 38.3048 133.089 37.9817C132.287 37.6586 131.662 37.2105 131.193 36.6268C130.725 36.0536 130.496 35.3762 130.496 34.5945C130.496 33.9171 130.642 33.3126 130.944 32.7915C131.246 32.2704 131.683 31.8431 132.277 31.4991C132.86 31.1552 133.599 30.8946 134.484 30.7175C135.37 30.5403 136.39 30.4465 137.546 30.4465H141.91L141.639 32.4475H137.161C136.567 32.4475 136.036 32.4892 135.568 32.583C135.099 32.6768 134.703 32.8123 134.37 32.9999C134.037 33.1875 133.797 33.4064 133.641 33.6565C133.485 33.9066 133.401 34.2089 133.401 34.5424C133.401 34.8759 133.505 35.2094 133.735 35.4804C133.953 35.7514 134.255 35.9598 134.63 36.1057C135.005 36.2516 135.443 36.3246 135.942 36.3246C136.661 36.3246 137.338 36.2204 137.984 36.0223C138.629 35.8243 139.213 35.5429 139.712 35.1781C140.223 34.8238 140.618 34.4278 140.889 33.9796L141.608 35.6159C141.191 36.1891 140.671 36.6789 140.056 37.1063C139.442 37.5336 138.775 37.8567 138.057 38.1068C137.338 38.3465 136.599 38.4716 135.817 38.4716H135.807ZM140.493 38.2319V29.8941C140.493 29.175 140.181 28.6017 139.556 28.1536C138.931 27.7054 138.14 27.4866 137.182 27.4866C136.307 27.4866 135.515 27.6325 134.807 27.9243C134.099 28.2161 133.464 28.6643 132.881 29.2688L130.881 27.6325C131.818 26.8091 132.829 26.1838 133.912 25.7773C134.995 25.3709 136.161 25.1729 137.421 25.1729C138.681 25.1729 139.65 25.3396 140.525 25.6627C141.4 25.9858 142.076 26.4652 142.556 27.0905C143.035 27.7159 143.274 28.4767 143.274 29.373V38.2423H140.493V38.2319Z" fill="#C20002"/>
<path d="M147.159 38.2316V20.2012H150.231V28.0699L149.689 28.3617C149.887 27.7989 150.272 27.2674 150.856 26.788C151.439 26.3086 152.116 25.923 152.918 25.6207C153.72 25.3185 154.532 25.1726 155.365 25.1726C156.563 25.1726 157.552 25.3602 158.354 25.7458C159.145 26.1314 159.749 26.7046 160.145 27.4863C160.541 28.2679 160.739 29.2476 160.739 30.4358V38.2316H157.667V30.6025C157.667 29.873 157.552 29.2685 157.313 28.7891C157.073 28.3096 156.709 27.9657 156.209 27.7468C155.709 27.528 155.094 27.4342 154.355 27.4654C153.761 27.4654 153.209 27.5384 152.709 27.6947C152.21 27.8511 151.783 28.0595 151.408 28.3409C151.043 28.6223 150.752 28.935 150.543 29.2997C150.335 29.6645 150.231 30.0606 150.231 30.4775V38.2211H147.159V38.2316Z" fill="#C20002"/>
<path d="M171.466 38.4716C170.028 38.4716 168.747 38.1798 167.633 37.6066C166.508 37.0333 165.613 36.2413 164.957 35.2407C164.301 34.2402 163.967 33.1042 163.967 31.8118C163.967 30.5195 164.29 29.3835 164.936 28.3933C165.581 27.3928 166.467 26.6112 167.581 26.0275C168.695 25.4543 169.956 25.1625 171.372 25.1625C172.153 25.1625 172.903 25.2667 173.632 25.4647C174.361 25.6732 175.006 25.9441 175.59 26.2881C176.162 26.632 176.621 27.0176 176.944 27.4345C177.266 27.8514 177.433 28.2683 177.433 28.6852L176.537 28.7373V20.1807H179.61V38.211H176.537V35.1678H177.131C177.131 35.5638 176.975 35.9494 176.652 36.3246C176.329 36.6998 175.913 37.0646 175.381 37.3877C174.85 37.7108 174.246 37.9713 173.559 38.1694C172.872 38.3674 172.174 38.4612 171.455 38.4612L171.466 38.4716ZM171.882 36.3038C172.819 36.3038 173.642 36.1058 174.361 35.7201C175.079 35.3345 175.642 34.803 176.048 34.1256C176.454 33.4481 176.662 32.6873 176.662 31.8222C176.662 30.9572 176.454 30.1964 176.048 29.5189C175.642 28.8415 175.079 28.31 174.361 27.9243C173.642 27.5387 172.819 27.3407 171.882 27.3407C170.945 27.3407 170.122 27.5387 169.404 27.9243C168.685 28.31 168.123 28.8415 167.716 29.5189C167.31 30.1964 167.102 30.9572 167.102 31.8222C167.102 32.6873 167.31 33.4481 167.716 34.1256C168.123 34.803 168.685 35.3345 169.404 35.7201C170.122 36.1058 170.945 36.3038 171.882 36.3038Z" fill="#C20002"/>
<path d="M188.462 38.4716C187.452 38.4716 186.545 38.3048 185.744 37.9817C184.942 37.6586 184.317 37.2105 183.848 36.6268C183.38 36.0536 183.15 35.3762 183.15 34.5945C183.15 33.9171 183.296 33.3126 183.598 32.7915C183.9 32.2704 184.338 31.8431 184.931 31.4991C185.514 31.1552 186.254 30.8946 187.139 30.7175C188.024 30.5403 189.045 30.4465 190.201 30.4465H194.565L194.294 32.4475H189.816C189.222 32.4475 188.691 32.4892 188.222 32.583C187.754 32.6768 187.358 32.8123 187.025 32.9999C186.691 33.1875 186.452 33.4064 186.296 33.6565C186.139 33.9066 186.056 34.2089 186.056 34.5424C186.056 34.8759 186.16 35.2094 186.389 35.4804C186.608 35.7514 186.91 35.9598 187.285 36.1057C187.66 36.2516 188.097 36.3246 188.597 36.3246C189.316 36.3246 189.993 36.2204 190.638 36.0223C191.284 35.8243 191.867 35.5429 192.367 35.1781C192.877 34.8238 193.273 34.4278 193.544 33.9796L194.262 35.6159C193.846 36.1891 193.325 36.6789 192.711 37.1063C192.096 37.5336 191.43 37.8567 190.711 38.1068C189.993 38.3465 189.253 38.4716 188.472 38.4716H188.462ZM193.148 38.2319V29.8941C193.148 29.175 192.836 28.6017 192.211 28.1536C191.586 27.7054 190.795 27.4866 189.836 27.4866C188.962 27.4866 188.17 27.6325 187.462 27.9243C186.754 28.2161 186.118 28.6643 185.535 29.2688L183.536 27.6325C184.473 26.8091 185.483 26.1838 186.566 25.7773C187.649 25.3709 188.816 25.1729 190.076 25.1729C191.336 25.1729 192.305 25.3396 193.179 25.6627C194.054 25.9858 194.731 26.4652 195.21 27.0905C195.689 27.7159 195.929 28.4767 195.929 29.373V38.2423H193.148V38.2319Z" fill="#C20002"/>
<path d="M147.294 11.8641H145.69V15.7933H145.148V11.8641H143.545V11.4785H147.304V11.8641H147.294Z" fill="#EFEFEF"/>
<path d="M148.731 15.7934H148.2V11.3535L148.731 11.3223V12.8335C149.085 12.6771 149.45 12.6042 149.845 12.6042C150.314 12.6042 150.678 12.7084 150.928 12.9064C151.189 13.1045 151.314 13.3859 151.314 13.7402V15.7934H150.783V13.7715C150.783 13.5213 150.699 13.3233 150.533 13.1878C150.366 13.0523 150.116 12.9794 149.793 12.9794C149.408 12.9794 149.054 13.0628 148.731 13.2191V15.7934Z" fill="#EFEFEF"/>
<path d="M155.344 13.0526C155.646 13.3445 155.792 13.7405 155.792 14.2408C155.792 14.741 155.646 15.1267 155.344 15.4289C155.042 15.7311 154.615 15.8771 154.074 15.8771C153.532 15.8771 153.115 15.7311 152.813 15.4289C152.511 15.1371 152.355 14.741 152.355 14.2408C152.355 13.7405 152.511 13.3549 152.813 13.0526C153.115 12.7608 153.542 12.6045 154.074 12.6045C154.605 12.6045 155.042 12.7504 155.344 13.0526ZM153.199 13.3236C153.001 13.5425 152.897 13.8552 152.897 14.2408C152.897 14.6264 152.99 14.9286 153.199 15.1579C153.397 15.3872 153.688 15.4914 154.074 15.4914C154.459 15.4914 154.761 15.3768 154.959 15.1579C155.157 14.9391 155.25 14.6264 155.25 14.2408C155.25 13.8552 155.157 13.5425 154.959 13.3236C154.761 13.1048 154.469 12.9901 154.074 12.9901C153.678 12.9901 153.397 13.1048 153.199 13.3236Z" fill="#EFEFEF"/>
<path d="M159.916 15.5533C159.416 15.7617 158.864 15.8659 158.281 15.8659C157.333 15.8659 156.854 15.4907 156.854 14.7508V12.6768H157.385V14.7404C157.385 15.2302 157.687 15.4803 158.291 15.4803C158.708 15.4803 159.062 15.4074 159.374 15.2719V12.6768H159.916V15.5429V15.5533Z" fill="#EFEFEF"/>
<path d="M162.582 16.9714C162.145 16.9714 161.738 16.9193 161.364 16.8046L161.488 16.4399C161.832 16.5441 162.186 16.5962 162.561 16.5962C162.936 16.5962 163.196 16.5337 163.384 16.3982C163.571 16.2627 163.655 16.0751 163.655 15.8354V15.4706C163.394 15.6061 163.082 15.6686 162.717 15.6686C162.186 15.6686 161.759 15.5435 161.457 15.283C161.155 15.0224 160.999 14.6577 160.999 14.1887C160.999 13.7197 161.166 13.3236 161.499 13.0318C161.832 12.7504 162.29 12.6045 162.863 12.6045C163.363 12.6045 163.811 12.6879 164.186 12.8546V15.8041C164.186 16.1793 164.05 16.4711 163.759 16.6691C163.478 16.8672 163.082 16.9714 162.582 16.9714ZM161.541 14.1678C161.541 14.5222 161.645 14.8036 161.874 15.0016C162.093 15.1996 162.395 15.3038 162.78 15.3038C163.113 15.3038 163.405 15.2309 163.655 15.0954V13.1256C163.405 13.0422 163.134 13.0005 162.863 13.0005C162.457 13.0005 162.134 13.1048 161.895 13.3132C161.655 13.5216 161.541 13.8135 161.541 14.1782V14.1678Z" fill="#EFEFEF"/>
<path d="M166.071 15.7934H165.54V11.3535L166.071 11.3223V12.8335C166.425 12.6771 166.789 12.6042 167.185 12.6042C167.654 12.6042 168.018 12.7084 168.268 12.9064C168.529 13.1045 168.654 13.3859 168.654 13.7402V15.7934H168.122V13.7715C168.122 13.5213 168.039 13.3233 167.872 13.1878C167.706 13.0523 167.456 12.9794 167.133 12.9794C166.748 12.9794 166.394 13.0628 166.071 13.2191V15.7934Z" fill="#EFEFEF"/>
<path d="M171.695 15.8035C171.507 15.8452 171.309 15.866 171.132 15.866C170.393 15.866 170.018 15.5325 170.018 14.8759V13.0416H169.445V12.6768H170.018V11.9473L170.549 11.916V12.6768H171.58V13.0416H170.549V14.8759C170.549 15.0948 170.601 15.2511 170.716 15.3449C170.83 15.4387 170.986 15.4908 171.205 15.4908C171.372 15.4908 171.528 15.47 171.663 15.4387L171.705 15.8035H171.695Z" fill="#EFEFEF"/>
<path d="M176.464 15.8666C175.694 15.8666 175.111 15.6686 174.694 15.2726C174.277 14.8765 174.08 14.345 174.08 13.678C174.08 13.0109 174.277 12.4481 174.684 12.0208C175.079 11.604 175.673 11.3955 176.444 11.3955C176.881 11.3955 177.308 11.4685 177.735 11.6144L177.6 12C177.152 11.8645 176.777 11.802 176.454 11.802C175.85 11.802 175.392 11.9792 175.1 12.3231C174.809 12.667 174.663 13.1256 174.663 13.6884C174.663 14.2512 174.819 14.6785 175.121 14.9912C175.423 15.3143 175.892 15.4706 176.496 15.4706C176.86 15.4706 177.256 15.3976 177.662 15.2517L177.777 15.6373C177.391 15.7937 176.964 15.877 176.475 15.877L176.464 15.8666Z" fill="#EFEFEF"/>
<path d="M181.588 15.6471C181.213 15.793 180.786 15.866 180.307 15.866C179.703 15.866 179.224 15.7201 178.87 15.4387C178.516 15.1573 178.349 14.7508 178.349 14.2297C178.349 13.7503 178.506 13.3542 178.818 13.0624C179.13 12.7602 179.557 12.6143 180.089 12.6143C180.568 12.6143 180.953 12.7393 181.224 12.9999C181.495 13.2604 181.63 13.5731 181.63 13.9691C181.63 14.1046 181.63 14.2193 181.609 14.3339H178.891C178.912 14.7195 179.047 15.0114 179.297 15.2094C179.547 15.4074 179.901 15.5012 180.339 15.5012C180.703 15.5012 181.088 15.4282 181.474 15.2928L181.567 15.6575L181.588 15.6471ZM180.099 12.979C179.755 12.979 179.474 13.0728 179.266 13.2604C179.058 13.448 178.943 13.6982 178.901 14.0213H181.109C181.109 14.0213 181.109 13.9483 181.109 13.9066C181.109 13.6461 181.026 13.4272 180.849 13.25C180.672 13.0728 180.422 12.9895 180.089 12.9895L180.099 12.979Z" fill="#EFEFEF"/>
<path d="M183.244 15.793H182.713V12.9269C183.213 12.7185 183.754 12.6143 184.317 12.6143C184.817 12.6143 185.192 12.7185 185.442 12.9165C185.692 13.1145 185.827 13.3959 185.827 13.7503V15.8034H185.296V13.7815C185.296 13.5314 185.212 13.3438 185.046 13.2083C184.879 13.0728 184.64 12.9999 184.306 12.9999C183.911 12.9999 183.557 13.0728 183.234 13.2083V15.8034L183.244 15.793Z" fill="#EFEFEF"/>
<path d="M188.868 15.8035C188.68 15.8452 188.483 15.866 188.306 15.866C187.566 15.866 187.191 15.5325 187.191 14.8759V13.0416H186.618V12.6768H187.191V11.9473L187.722 11.916V12.6768H188.753V13.0416H187.722V14.8759C187.722 15.0948 187.774 15.2511 187.889 15.3449C188.004 15.4387 188.16 15.4908 188.378 15.4908C188.545 15.4908 188.701 15.47 188.837 15.4387L188.878 15.8035H188.868Z" fill="#EFEFEF"/>
<path d="M192.617 15.6471C192.242 15.793 191.815 15.866 191.336 15.866C190.732 15.866 190.253 15.7201 189.899 15.4387C189.545 15.1573 189.378 14.7508 189.378 14.2297C189.378 13.7503 189.534 13.3542 189.847 13.0624C190.159 12.7602 190.586 12.6143 191.117 12.6143C191.596 12.6143 191.982 12.7393 192.253 12.9999C192.523 13.2604 192.659 13.5731 192.659 13.9691C192.659 14.1046 192.659 14.2193 192.638 14.3339H189.92C189.941 14.7195 190.076 15.0114 190.326 15.2094C190.576 15.4074 190.93 15.5012 191.367 15.5012C191.732 15.5012 192.117 15.4282 192.502 15.2928L192.596 15.6575L192.617 15.6471ZM191.128 12.979C190.784 12.979 190.503 13.0728 190.295 13.2604C190.086 13.448 189.972 13.6982 189.93 14.0213H192.138C192.138 14.0213 192.138 13.9483 192.138 13.9066C192.138 13.6461 192.055 13.4272 191.878 13.25C191.701 13.0728 191.451 12.9895 191.117 12.9895L191.128 12.979Z" fill="#EFEFEF"/>
<path d="M193.783 12.9172C194.242 12.7087 194.762 12.6045 195.366 12.6045C195.512 12.6045 195.648 12.6045 195.793 12.6358L195.721 13.011C195.637 12.9901 195.533 12.9797 195.408 12.9797C194.981 12.9797 194.627 13.0526 194.325 13.1881V15.7833H193.794V12.9172H193.783Z" fill="#EFEFEF"/>
</g>
<defs>
<clipPath id="clip0_586_592">
<rect width="196" height="60" fill="white"/>
</clipPath>
</defs>
</svg>
