<svg width="196" height="60" viewBox="0 0 196 60" fill="none" xmlns="http://www.w3.org/2000/svg">
<g clip-path="url(#clip0_1088_2379)">
<path d="M33.3507 36.6794C33.3507 42.2031 28.8726 46.6847 23.353 46.6847C17.8334 46.6847 13.3552 42.2031 13.3552 36.6794C13.3552 33.9175 14.4696 31.4162 16.2817 29.6027C18.0937 27.7892 20.5932 26.6741 23.353 26.6741C26.1128 26.6741 28.6122 27.7997 30.4243 29.6027C32.2364 31.4162 33.3507 33.9175 33.3507 36.6794Z" fill="#C20002"/>
<path d="M15.5525 27.3306C11.3867 24.6834 7.26266 22.0674 3.12817 19.4515C2.7116 19.1805 2.05549 18.9408 2.39917 18.3675C2.76367 17.7526 3.33646 18.2321 3.72179 18.503C7.50219 21.1503 11.2722 23.8288 15.0422 26.4864C15.3129 26.6844 15.5108 26.9242 15.5525 27.3306Z" fill="#C20002"/>
<path d="M14.9379 23.5473C13.1467 21.9423 11.345 20.3477 9.55372 18.7427C9.41834 18.6281 9.35585 18.4613 9.26212 18.3154C9.14757 18.1591 9.11632 18.0131 9.42875 17.7943C9.78284 17.5441 9.88698 17.6692 10.0744 17.8047C10.7097 18.305 11.1575 18.9616 11.6574 19.5556C12.5843 20.65 13.6049 21.6609 14.5734 22.7135C14.7713 22.9324 14.8963 23.2034 15.0629 23.4535C15.0212 23.4848 14.99 23.5161 14.9483 23.5473H14.9379Z" fill="#C20002"/>
<path d="M18.1561 22.7138C14.4069 18.2322 10.6682 13.7403 6.90862 9.26916C6.48163 8.75847 5.89843 8.18525 6.36708 7.86216C6.86696 7.51823 7.48141 8.28947 7.79384 8.69594C11.4076 13.3025 14.9693 17.93 18.5414 22.547C18.406 22.5991 18.2811 22.6512 18.1457 22.7138H18.1561Z" fill="#C20002"/>
<path d="M20.4578 19.931C19.9787 18.8054 19.5101 17.7528 19.0831 16.7001C18.3645 14.9075 17.6875 13.1149 16.9585 11.3223C16.8127 10.9679 16.8127 10.6969 17.1564 10.6344C17.4376 10.5823 17.6146 10.8533 17.7084 11.1243C18.6873 13.9591 19.6663 16.7939 20.6244 19.6288C20.6452 19.6809 20.5515 19.7538 20.4473 19.9414L20.4578 19.931Z" fill="#C20002"/>
<path d="M31.1323 27.3306C35.2981 24.6834 39.4221 22.0674 43.5566 19.4515C43.9732 19.1805 44.6293 18.9408 44.2856 18.3675C43.9211 17.7526 43.3483 18.2321 42.963 18.503C39.1826 21.1503 35.4126 23.8288 31.6426 26.4864C31.3719 26.6844 31.174 26.9242 31.1323 27.3306Z" fill="#C20002"/>
<path d="M31.7466 23.5473C33.5378 21.9423 35.3395 20.3477 37.1308 18.7427C37.2661 18.6281 37.3286 18.4613 37.4224 18.3154C37.5369 18.1591 37.5682 18.0131 37.2557 17.7943C36.9017 17.5441 36.7975 17.6692 36.61 17.8047C35.9748 18.305 35.527 18.9616 35.0271 19.5556C34.1002 20.65 33.0796 21.6609 32.1111 22.7135C31.9132 22.9324 31.7882 23.2034 31.6216 23.4535C31.6632 23.4848 31.6945 23.5161 31.7361 23.5473H31.7466Z" fill="#C20002"/>
<path d="M28.5391 22.7138C32.2883 18.2322 36.027 13.7403 39.7866 9.26916C40.2136 8.75847 40.7968 8.18525 40.3282 7.86216C39.8283 7.51823 39.2138 8.28947 38.9014 8.69594C35.2876 13.3025 31.7259 17.93 28.1538 22.547C28.2892 22.5991 28.4142 22.6512 28.5496 22.7138H28.5391Z" fill="#C20002"/>
<path d="M23.7276 19.2536C23.7485 13.4067 23.7693 7.57028 23.811 1.72344C23.811 1.05642 23.8943 0.243485 23.3319 0.295596C22.7279 0.347707 22.7487 1.33781 22.7591 1.8485C22.9153 7.69535 23.1236 13.5422 23.3215 19.3786C23.4569 19.3369 23.5923 19.2952 23.7276 19.2536Z" fill="#C20002"/>
<path d="M26.2377 19.931C26.7167 18.8054 27.1854 17.7528 27.6124 16.7001C28.3309 14.9075 29.0079 13.1149 29.7369 11.3223C29.8827 10.9679 29.8827 10.6969 29.539 10.6344C29.2578 10.5823 29.0808 10.8533 28.9871 11.1243C28.0081 13.9591 27.0292 16.7939 26.071 19.6288C26.0502 19.6809 26.1439 19.7538 26.2481 19.9414L26.2377 19.931Z" fill="#C20002"/>
<path d="M36.1834 28.8108C37.5685 31.0828 38.36 33.7509 38.36 36.6066C38.36 44.9026 31.6427 51.625 23.3529 51.625C15.0631 51.625 8.34588 44.9026 8.34588 36.6066C8.34588 33.7196 9.1582 31.0307 10.5641 28.7483L3.46156 24.5168C1.31621 28.0395 0.0769043 32.1876 0.0769043 36.617C0.0769043 49.478 10.4912 59.9106 23.3529 59.9106C36.2146 59.9106 46.629 49.478 46.629 36.617C46.629 32.2293 45.4209 28.1229 43.3068 24.6211L36.1834 28.8212V28.8108Z" fill="#727272"/>
<path d="M145.857 14.8034C145.857 14.8882 145.861 14.9569 145.874 15.0134C145.886 15.0699 145.91 15.1144 145.946 15.1467C145.983 15.179 146.035 15.2032 146.104 15.2194C146.172 15.2355 146.257 15.2396 146.37 15.2396H146.64C146.733 15.2396 146.802 15.2517 146.846 15.2759C146.891 15.3001 146.915 15.3446 146.915 15.4051V15.6192C146.915 15.6596 146.907 15.6919 146.895 15.7161C146.878 15.7403 146.862 15.7565 146.834 15.7686C146.81 15.7807 146.778 15.7888 146.745 15.7928C146.713 15.7969 146.677 15.8009 146.636 15.8009H146.196C146.027 15.8009 145.878 15.7888 145.761 15.7605C145.64 15.7363 145.543 15.7 145.462 15.6596C145.385 15.6151 145.325 15.5667 145.28 15.5101C145.24 15.4536 145.208 15.393 145.188 15.3324C144.998 15.4253 144.816 15.494 144.647 15.5303C144.473 15.5707 144.3 15.5909 144.126 15.5909C143.973 15.5909 143.82 15.5748 143.662 15.5384C143.505 15.5021 143.364 15.4496 143.238 15.3728C143.113 15.2961 143.008 15.1992 142.928 15.0821C142.847 14.9649 142.807 14.8196 142.807 14.654C142.807 14.4965 142.847 14.3592 142.924 14.234C143.004 14.1088 143.109 13.9997 143.238 13.9028C143.368 13.8059 143.517 13.7211 143.682 13.6484C143.848 13.5757 144.021 13.5111 144.195 13.4586C144.368 13.402 144.542 13.3576 144.711 13.3172C144.881 13.2768 145.034 13.2405 145.171 13.2122V12.8811H145.861V14.8074L145.857 14.8034ZM145.167 13.709C144.913 13.7493 144.679 13.7938 144.469 13.8503C144.259 13.9028 144.078 13.9674 143.929 14.0401C143.779 14.1128 143.662 14.1936 143.577 14.2824C143.493 14.3713 143.452 14.4722 143.452 14.5853C143.452 14.6782 143.477 14.7549 143.525 14.8155C143.573 14.8761 143.634 14.9286 143.711 14.9649C143.787 15.0013 143.872 15.0296 143.969 15.0457C144.062 15.0619 144.159 15.0699 144.255 15.0699C144.437 15.0699 144.602 15.0497 144.756 15.0134C144.909 14.9771 145.046 14.9246 145.167 14.8559V13.709ZM143.937 12.1218C143.937 12.0774 143.949 12.033 143.969 11.9926C143.989 11.9522 144.021 11.9159 144.054 11.8876C144.09 11.8593 144.13 11.8351 144.183 11.8149C144.231 11.7987 144.288 11.7866 144.344 11.7866C144.401 11.7866 144.453 11.7947 144.502 11.8149C144.55 11.831 144.594 11.8553 144.631 11.8876C144.667 11.9199 144.695 11.9522 144.719 11.9926C144.74 12.033 144.752 12.0774 144.752 12.1218C144.752 12.1662 144.74 12.2107 144.719 12.2511C144.699 12.2914 144.667 12.3278 144.631 12.3561C144.594 12.3843 144.55 12.4086 144.502 12.4247C144.453 12.4409 144.397 12.453 144.344 12.453C144.227 12.453 144.134 12.4207 144.054 12.3561C143.977 12.2914 143.937 12.2147 143.937 12.1218ZM145.03 12.1218C145.03 12.0774 145.042 12.033 145.062 11.9926C145.083 11.9522 145.115 11.9159 145.147 11.8876C145.184 11.8593 145.224 11.8351 145.276 11.8149C145.325 11.7987 145.381 11.7866 145.438 11.7866C145.494 11.7866 145.547 11.7947 145.595 11.8149C145.644 11.831 145.688 11.8553 145.724 11.8876C145.761 11.9199 145.793 11.9522 145.813 11.9926C145.833 12.033 145.845 12.0774 145.845 12.1218C145.845 12.1662 145.833 12.2107 145.813 12.2511C145.793 12.2914 145.761 12.3278 145.724 12.3561C145.688 12.3843 145.644 12.4086 145.595 12.4247C145.547 12.4409 145.49 12.453 145.438 12.453C145.321 12.453 145.228 12.4207 145.147 12.3561C145.071 12.2914 145.03 12.2147 145.03 12.1218Z" fill="#727272"/>
<path d="M148.351 15.0175C148.485 15.0983 148.638 15.1549 148.807 15.1872C148.977 15.2195 149.167 15.2356 149.372 15.2356C149.421 15.1145 149.485 14.9772 149.57 14.8277C149.655 14.6783 149.752 14.5248 149.865 14.3714C149.982 14.2179 150.111 14.0685 150.26 13.9231C150.41 13.7777 150.575 13.6485 150.757 13.5354C150.938 13.4223 151.136 13.3335 151.35 13.2648C151.564 13.1962 151.79 13.1639 152.032 13.1639C152.326 13.1639 152.577 13.2042 152.786 13.281C152.996 13.3577 153.166 13.4667 153.303 13.6081C153.436 13.7454 153.537 13.911 153.598 14.0968C153.662 14.2825 153.69 14.4845 153.69 14.7025V15.2356H154.481C154.574 15.2356 154.643 15.2477 154.687 15.272C154.732 15.2962 154.756 15.3406 154.756 15.4012V15.6152C154.756 15.6556 154.748 15.6879 154.736 15.7122C154.723 15.7364 154.703 15.7526 154.675 15.7647C154.647 15.7768 154.619 15.7849 154.586 15.7889C154.554 15.7929 154.518 15.797 154.477 15.797H149.364C149.259 15.797 149.155 15.7929 149.05 15.7808C148.945 15.7687 148.844 15.7526 148.743 15.7243C148.642 15.7001 148.549 15.6677 148.456 15.6274C148.364 15.587 148.283 15.5385 148.21 15.486C148.146 15.5749 148.061 15.6476 147.948 15.7081C147.839 15.7687 147.698 15.797 147.528 15.797H146.624C146.531 15.797 146.463 15.7849 146.418 15.7606C146.374 15.7364 146.35 15.692 146.35 15.6314V15.4174C146.35 15.377 146.358 15.3447 146.37 15.3204C146.382 15.2962 146.402 15.28 146.431 15.2679C146.455 15.2558 146.487 15.2477 146.519 15.2437C146.552 15.2397 146.588 15.2356 146.628 15.2356H147.391C147.472 15.2356 147.536 15.2074 147.585 15.1468C147.633 15.0902 147.657 15.0014 147.657 14.8802V13.9877H148.347V15.0095L148.351 15.0175ZM153 14.7672C153 14.5652 152.972 14.3956 152.92 14.2623C152.863 14.1291 152.79 14.02 152.694 13.9352C152.601 13.8544 152.488 13.7939 152.359 13.7616C152.23 13.7293 152.092 13.7091 151.947 13.7091C151.79 13.7091 151.636 13.7333 151.491 13.7777C151.346 13.8221 151.209 13.8827 151.079 13.9594C150.95 14.0362 150.833 14.125 150.724 14.226C150.615 14.327 150.519 14.432 150.43 14.545C150.341 14.6581 150.268 14.7752 150.204 14.8923C150.139 15.0095 150.091 15.1266 150.054 15.2356H153V14.7672ZM150.603 12.2754C150.603 12.231 150.615 12.1865 150.636 12.1462C150.656 12.1058 150.684 12.0694 150.72 12.0411C150.757 12.0129 150.797 11.9886 150.849 11.9685C150.898 11.9523 150.954 11.9402 151.011 11.9402C151.067 11.9402 151.12 11.9483 151.168 11.9685C151.217 11.9846 151.261 12.0088 151.297 12.0411C151.334 12.0694 151.362 12.1058 151.386 12.1462C151.406 12.1865 151.418 12.231 151.418 12.2754C151.418 12.3198 151.406 12.3642 151.386 12.4046C151.366 12.445 151.334 12.4813 151.297 12.5096C151.261 12.5379 151.217 12.5621 151.168 12.5783C151.12 12.5944 151.063 12.6065 151.011 12.6065C150.894 12.6065 150.801 12.5742 150.72 12.5096C150.644 12.445 150.603 12.3683 150.603 12.2754Z" fill="#727272"/>
<path d="M155.974 15.6194C155.974 15.6598 155.966 15.6921 155.954 15.7163C155.938 15.7405 155.922 15.7567 155.894 15.7688C155.865 15.7809 155.837 15.789 155.805 15.793C155.773 15.7971 155.736 15.8011 155.696 15.8011H154.477C154.437 15.8011 154.405 15.8011 154.368 15.793C154.336 15.793 154.304 15.7809 154.279 15.7688C154.255 15.7567 154.235 15.7365 154.219 15.7163C154.203 15.6921 154.199 15.6598 154.199 15.6194V15.4053C154.199 15.3447 154.223 15.3044 154.267 15.2761C154.312 15.2478 154.384 15.2397 154.473 15.2397H155.692C155.785 15.2397 155.853 15.2519 155.898 15.2761C155.942 15.3003 155.966 15.3447 155.966 15.4053V15.6194H155.974Z" fill="#727272"/>
<path d="M157.193 15.6194C157.193 15.6598 157.185 15.6921 157.173 15.7163C157.157 15.7405 157.141 15.7567 157.112 15.7688C157.084 15.7809 157.056 15.789 157.024 15.793C156.991 15.7971 156.955 15.8011 156.915 15.8011H155.696C155.656 15.8011 155.623 15.8011 155.587 15.793C155.555 15.793 155.522 15.7809 155.498 15.7688C155.474 15.7567 155.454 15.7365 155.438 15.7163C155.422 15.6921 155.417 15.6598 155.417 15.6194V15.4053C155.417 15.3447 155.442 15.3044 155.486 15.2761C155.53 15.2478 155.603 15.2397 155.692 15.2397H156.911C157.003 15.2397 157.072 15.2519 157.116 15.2761C157.161 15.3003 157.185 15.3447 157.185 15.4053V15.6194H157.193Z" fill="#727272"/>
<path d="M158.412 15.6194C158.412 15.6598 158.404 15.6921 158.392 15.7163C158.376 15.7405 158.359 15.7567 158.331 15.7688C158.303 15.7809 158.275 15.789 158.242 15.793C158.21 15.7971 158.174 15.8011 158.133 15.8011H156.915C156.874 15.8011 156.842 15.8011 156.806 15.793C156.773 15.793 156.741 15.7809 156.717 15.7688C156.693 15.7567 156.673 15.7365 156.656 15.7163C156.64 15.6921 156.636 15.6598 156.636 15.6194V15.4053C156.636 15.3447 156.66 15.3044 156.705 15.2761C156.749 15.2478 156.822 15.2397 156.911 15.2397H158.129C158.222 15.2397 158.291 15.2519 158.335 15.2761C158.38 15.3003 158.404 15.3447 158.404 15.4053V15.6194H158.412Z" fill="#727272"/>
<path d="M159.626 15.6194C159.626 15.6598 159.618 15.6921 159.606 15.7163C159.594 15.7405 159.574 15.7567 159.546 15.7688C159.517 15.7809 159.489 15.789 159.457 15.793C159.425 15.7971 159.388 15.8011 159.348 15.8011H158.129C158.089 15.8011 158.057 15.8011 158.02 15.793C157.988 15.793 157.956 15.7809 157.932 15.7688C157.907 15.7567 157.887 15.7365 157.871 15.7163C157.855 15.6921 157.851 15.6598 157.851 15.6194V15.4053C157.851 15.3447 157.875 15.3044 157.919 15.2761C157.964 15.2478 158.036 15.2397 158.125 15.2397H159.344C159.437 15.2397 159.505 15.2519 159.55 15.2761C159.594 15.3003 159.618 15.3447 159.618 15.4053V15.6194H159.626Z" fill="#727272"/>
<path d="M160.845 15.6194C160.845 15.6598 160.837 15.6921 160.825 15.7163C160.813 15.7405 160.793 15.7567 160.764 15.7688C160.736 15.7809 160.708 15.789 160.676 15.793C160.643 15.7971 160.607 15.8011 160.567 15.8011H159.348C159.312 15.8011 159.275 15.8011 159.239 15.793C159.207 15.793 159.175 15.7809 159.15 15.7688C159.126 15.7567 159.106 15.7365 159.09 15.7163C159.078 15.6921 159.07 15.6598 159.07 15.6194V15.4053C159.07 15.3447 159.094 15.3044 159.138 15.2761C159.183 15.2478 159.255 15.2397 159.344 15.2397H160.563C160.656 15.2397 160.724 15.2519 160.769 15.2761C160.813 15.3003 160.837 15.3447 160.837 15.4053V15.6194H160.845Z" fill="#727272"/>
<path d="M162.06 15.6194C162.06 15.6598 162.052 15.6921 162.04 15.7163C162.028 15.7405 162.007 15.7567 161.979 15.7688C161.951 15.7809 161.923 15.789 161.89 15.793C161.858 15.7971 161.822 15.8011 161.781 15.8011H160.563C160.526 15.8011 160.49 15.8011 160.454 15.793C160.421 15.793 160.389 15.7809 160.365 15.7688C160.341 15.7567 160.32 15.7365 160.304 15.7163C160.292 15.6921 160.284 15.6598 160.284 15.6194V15.4053C160.284 15.3447 160.308 15.3044 160.353 15.2761C160.397 15.2478 160.47 15.2397 160.559 15.2397H161.777C161.87 15.2397 161.939 15.2519 161.983 15.2761C162.028 15.3003 162.052 15.3447 162.052 15.4053V15.6194H162.06Z" fill="#727272"/>
<path d="M163.279 15.6194C163.279 15.6598 163.27 15.6921 163.258 15.7163C163.246 15.7405 163.226 15.7567 163.198 15.7688C163.17 15.7809 163.141 15.789 163.109 15.793C163.077 15.7971 163.04 15.8011 163 15.8011H161.781C161.745 15.8011 161.709 15.8011 161.672 15.793C161.64 15.793 161.608 15.7809 161.584 15.7688C161.559 15.7567 161.539 15.7365 161.523 15.7163C161.511 15.6921 161.503 15.6598 161.503 15.6194V15.4053C161.503 15.3447 161.527 15.3044 161.572 15.2761C161.616 15.2478 161.689 15.2397 161.777 15.2397H162.996C163.089 15.2397 163.157 15.2519 163.202 15.2761C163.246 15.3003 163.27 15.3447 163.27 15.4053V15.6194H163.279Z" fill="#727272"/>
<path d="M164.493 15.6194C164.493 15.6598 164.485 15.6921 164.473 15.7163C164.461 15.7405 164.441 15.7567 164.412 15.7688C164.384 15.7809 164.356 15.789 164.324 15.793C164.291 15.7971 164.255 15.8011 164.215 15.8011H162.996C162.96 15.8011 162.923 15.8011 162.887 15.793C162.855 15.793 162.822 15.7809 162.798 15.7688C162.774 15.7567 162.754 15.7365 162.738 15.7163C162.726 15.6921 162.718 15.6598 162.718 15.6194V15.4053C162.718 15.3447 162.742 15.3044 162.786 15.2761C162.831 15.2478 162.903 15.2397 162.992 15.2397H164.211C164.303 15.2397 164.372 15.2519 164.416 15.2761C164.461 15.3003 164.485 15.3447 164.485 15.4053V15.6194H164.493Z" fill="#727272"/>
<path d="M165.712 15.6194C165.712 15.6598 165.704 15.6921 165.692 15.7163C165.68 15.7405 165.659 15.7567 165.631 15.7688C165.603 15.7809 165.575 15.789 165.542 15.793C165.51 15.7971 165.474 15.8011 165.433 15.8011H164.215C164.178 15.8011 164.142 15.8011 164.106 15.793C164.073 15.793 164.041 15.7809 164.017 15.7688C163.993 15.7567 163.973 15.7365 163.956 15.7163C163.944 15.6921 163.936 15.6598 163.936 15.6194V15.4053C163.936 15.3447 163.96 15.3044 164.005 15.2761C164.049 15.2478 164.122 15.2397 164.211 15.2397H165.429C165.522 15.2397 165.591 15.2519 165.635 15.2761C165.68 15.3003 165.704 15.3447 165.704 15.4053V15.6194H165.712Z" fill="#727272"/>
<path d="M166.927 15.6194C166.927 15.6598 166.919 15.6921 166.907 15.7163C166.894 15.7405 166.874 15.7567 166.846 15.7688C166.818 15.7809 166.79 15.789 166.757 15.793C166.725 15.7971 166.689 15.8011 166.648 15.8011H165.43C165.393 15.8011 165.357 15.8011 165.321 15.793C165.288 15.793 165.256 15.7809 165.232 15.7688C165.208 15.7567 165.187 15.7365 165.171 15.7163C165.159 15.6921 165.151 15.6598 165.151 15.6194V15.4053C165.151 15.3447 165.175 15.3044 165.22 15.2761C165.264 15.2478 165.337 15.2397 165.426 15.2397H166.644C166.737 15.2397 166.806 15.2519 166.85 15.2761C166.894 15.3003 166.919 15.3447 166.919 15.4053V15.6194H166.927Z" fill="#727272"/>
<path d="M168.145 15.6194C168.145 15.6598 168.137 15.6921 168.125 15.7163C168.113 15.7405 168.093 15.7567 168.065 15.7688C168.036 15.7809 168.008 15.789 167.976 15.793C167.943 15.7971 167.907 15.8011 167.867 15.8011H166.648C166.612 15.8011 166.575 15.8011 166.539 15.793C166.507 15.793 166.475 15.7809 166.45 15.7688C166.426 15.7567 166.406 15.7365 166.39 15.7163C166.378 15.6921 166.37 15.6598 166.37 15.6194V15.4053C166.37 15.3447 166.394 15.3044 166.438 15.2761C166.483 15.2478 166.555 15.2397 166.644 15.2397H167.863C167.956 15.2397 168.024 15.2519 168.069 15.2761C168.113 15.3003 168.137 15.3447 168.137 15.4053V15.6194H168.145Z" fill="#727272"/>
<path d="M169.36 15.6194C169.36 15.6598 169.352 15.6921 169.34 15.7163C169.328 15.7405 169.308 15.7567 169.279 15.7688C169.251 15.7809 169.223 15.789 169.191 15.793C169.158 15.7971 169.122 15.8011 169.082 15.8011H167.863C167.827 15.8011 167.79 15.8011 167.754 15.793C167.722 15.793 167.689 15.7809 167.665 15.7688C167.641 15.7567 167.621 15.7365 167.605 15.7163C167.593 15.6921 167.584 15.6598 167.584 15.6194V15.4053C167.584 15.3447 167.609 15.3044 167.653 15.2761C167.697 15.2478 167.77 15.2397 167.859 15.2397H169.078C169.17 15.2397 169.239 15.2519 169.283 15.2761C169.328 15.3003 169.352 15.3447 169.352 15.4053V15.6194H169.36Z" fill="#727272"/>
<path d="M170.579 15.6194C170.579 15.6598 170.571 15.6921 170.559 15.7163C170.547 15.7405 170.526 15.7567 170.498 15.7688C170.47 15.7809 170.442 15.789 170.409 15.793C170.377 15.7971 170.341 15.8011 170.3 15.8011H169.082C169.045 15.8011 169.009 15.8011 168.973 15.793C168.94 15.793 168.908 15.7809 168.884 15.7688C168.86 15.7567 168.84 15.7365 168.823 15.7163C168.811 15.6921 168.803 15.6598 168.803 15.6194V15.4053C168.803 15.3447 168.827 15.3044 168.872 15.2761C168.916 15.2478 168.989 15.2397 169.078 15.2397H170.296C170.389 15.2397 170.458 15.2519 170.502 15.2761C170.547 15.3003 170.571 15.3447 170.571 15.4053V15.6194H170.579Z" fill="#727272"/>
<path d="M171.793 15.6194C171.793 15.6598 171.785 15.6921 171.773 15.7163C171.761 15.7405 171.741 15.7567 171.713 15.7688C171.684 15.7809 171.656 15.789 171.624 15.793C171.592 15.7971 171.555 15.8011 171.515 15.8011H170.296C170.26 15.8011 170.224 15.8011 170.187 15.793C170.155 15.793 170.123 15.7809 170.099 15.7688C170.074 15.7567 170.054 15.7365 170.038 15.7163C170.026 15.6921 170.018 15.6598 170.018 15.6194V15.4053C170.018 15.3447 170.042 15.3044 170.086 15.2761C170.131 15.2478 170.203 15.2397 170.292 15.2397H171.511C171.604 15.2397 171.672 15.2519 171.717 15.2761C171.761 15.3003 171.785 15.3447 171.785 15.4053V15.6194H171.793Z" fill="#727272"/>
<path d="M173.012 15.6194C173.012 15.6598 173.004 15.6921 172.992 15.7163C172.98 15.7405 172.96 15.7567 172.931 15.7688C172.903 15.7809 172.875 15.789 172.843 15.793C172.81 15.7971 172.774 15.8011 172.734 15.8011H171.515C171.479 15.8011 171.442 15.8011 171.406 15.793C171.374 15.793 171.341 15.7809 171.317 15.7688C171.293 15.7567 171.273 15.7365 171.257 15.7163C171.245 15.6921 171.237 15.6598 171.237 15.6194V15.4053C171.237 15.3447 171.261 15.3044 171.305 15.2761C171.35 15.2478 171.422 15.2397 171.511 15.2397H172.73C172.823 15.2397 172.891 15.2519 172.936 15.2761C172.98 15.3003 173.004 15.3447 173.004 15.4053V15.6194H173.012Z" fill="#727272"/>
<path d="M174.227 15.6194C174.227 15.6598 174.219 15.6921 174.207 15.7163C174.195 15.7405 174.174 15.7567 174.146 15.7688C174.118 15.7809 174.09 15.789 174.057 15.793C174.025 15.7971 173.989 15.8011 173.948 15.8011H172.73C172.693 15.8011 172.657 15.8011 172.621 15.793C172.588 15.793 172.556 15.7809 172.532 15.7688C172.508 15.7567 172.487 15.7365 172.471 15.7163C172.459 15.6921 172.451 15.6598 172.451 15.6194V15.4053C172.451 15.3447 172.475 15.3044 172.52 15.2761C172.564 15.2478 172.637 15.2397 172.726 15.2397H173.944C174.037 15.2397 174.106 15.2519 174.15 15.2761C174.195 15.3003 174.219 15.3447 174.219 15.4053V15.6194H174.227Z" fill="#727272"/>
<path d="M175.446 15.6194C175.446 15.6598 175.437 15.6921 175.425 15.7163C175.413 15.7405 175.393 15.7567 175.365 15.7688C175.337 15.7809 175.308 15.789 175.276 15.793C175.244 15.7971 175.207 15.8011 175.167 15.8011H173.948C173.912 15.8011 173.876 15.8011 173.839 15.793C173.807 15.793 173.775 15.7809 173.751 15.7688C173.726 15.7567 173.706 15.7365 173.69 15.7163C173.678 15.6921 173.67 15.6598 173.67 15.6194V15.4053C173.67 15.3447 173.694 15.3044 173.739 15.2761C173.783 15.2478 173.856 15.2397 173.944 15.2397H175.163C175.256 15.2397 175.324 15.2519 175.369 15.2761C175.413 15.3003 175.437 15.3447 175.437 15.4053V15.6194H175.446Z" fill="#727272"/>
<path d="M176.664 15.6194C176.664 15.6598 176.656 15.6921 176.644 15.7163C176.632 15.7405 176.612 15.7567 176.584 15.7688C176.555 15.7809 176.527 15.789 176.495 15.793C176.463 15.7971 176.426 15.8011 176.386 15.8011H175.167C175.131 15.8011 175.094 15.8011 175.058 15.793C175.026 15.793 174.994 15.7809 174.969 15.7688C174.945 15.7567 174.925 15.7365 174.909 15.7163C174.897 15.6921 174.889 15.6598 174.889 15.6194V15.4053C174.889 15.3447 174.913 15.3044 174.957 15.2761C175.002 15.2478 175.074 15.2397 175.163 15.2397H176.382C176.475 15.2397 176.543 15.2519 176.588 15.2761C176.632 15.3003 176.656 15.3447 176.656 15.4053V15.6194H176.664Z" fill="#727272"/>
<path d="M177.879 15.6194C177.879 15.6598 177.871 15.6921 177.859 15.7163C177.847 15.7405 177.826 15.7567 177.798 15.7688C177.77 15.7809 177.742 15.789 177.709 15.793C177.677 15.7971 177.641 15.8011 177.6 15.8011H176.382C176.345 15.8011 176.309 15.8011 176.273 15.793C176.24 15.793 176.208 15.7809 176.184 15.7688C176.16 15.7567 176.14 15.7365 176.123 15.7163C176.111 15.6921 176.103 15.6598 176.103 15.6194V15.4053C176.103 15.3447 176.127 15.3044 176.172 15.2761C176.216 15.2478 176.289 15.2397 176.378 15.2397H177.596C177.689 15.2397 177.758 15.2519 177.802 15.2761C177.847 15.3003 177.871 15.3447 177.871 15.4053V15.6194H177.879Z" fill="#727272"/>
<path d="M179.098 15.6194C179.098 15.6598 179.09 15.6921 179.077 15.7163C179.065 15.7405 179.045 15.7567 179.017 15.7688C178.989 15.7809 178.96 15.789 178.928 15.793C178.896 15.7971 178.86 15.8011 178.819 15.8011H177.6C177.564 15.8011 177.528 15.8011 177.492 15.793C177.459 15.793 177.427 15.7809 177.403 15.7688C177.379 15.7567 177.358 15.7365 177.342 15.7163C177.33 15.6921 177.322 15.6598 177.322 15.6194V15.4053C177.322 15.3447 177.346 15.3044 177.391 15.2761C177.435 15.2478 177.508 15.2397 177.596 15.2397H178.815C178.908 15.2397 178.977 15.2519 179.021 15.2761C179.065 15.3003 179.09 15.3447 179.09 15.4053V15.6194H179.098Z" fill="#727272"/>
<path d="M180.312 15.6194C180.312 15.6598 180.304 15.6921 180.292 15.7163C180.28 15.7405 180.26 15.7567 180.232 15.7688C180.204 15.7809 180.175 15.789 180.143 15.793C180.111 15.7971 180.074 15.8011 180.034 15.8011H178.815C178.779 15.8011 178.743 15.8011 178.706 15.793C178.674 15.793 178.642 15.7809 178.618 15.7688C178.593 15.7567 178.573 15.7365 178.557 15.7163C178.545 15.6921 178.537 15.6598 178.537 15.6194V15.4053C178.537 15.3447 178.561 15.3044 178.605 15.2761C178.65 15.2478 178.723 15.2397 178.811 15.2397H180.03C180.123 15.2397 180.191 15.2519 180.236 15.2761C180.28 15.3003 180.304 15.3447 180.304 15.4053V15.6194H180.312Z" fill="#727272"/>
<path d="M181.531 15.6194C181.531 15.6598 181.523 15.6921 181.511 15.7163C181.499 15.7405 181.479 15.7567 181.45 15.7688C181.422 15.7809 181.394 15.789 181.361 15.793C181.329 15.7971 181.293 15.8011 181.253 15.8011H180.034C179.998 15.8011 179.961 15.8011 179.925 15.793C179.893 15.793 179.86 15.7809 179.836 15.7688C179.812 15.7567 179.792 15.7365 179.776 15.7163C179.763 15.6921 179.755 15.6598 179.755 15.6194V15.4053C179.755 15.3447 179.78 15.3044 179.824 15.2761C179.868 15.2478 179.941 15.2397 180.03 15.2397H181.248C181.341 15.2397 181.41 15.2519 181.454 15.2761C181.499 15.3003 181.523 15.3447 181.523 15.4053V15.6194H181.531Z" fill="#727272"/>
<path d="M182.746 15.6194C182.746 15.6598 182.738 15.6921 182.726 15.7163C182.714 15.7405 182.693 15.7567 182.665 15.7688C182.637 15.7809 182.609 15.789 182.576 15.793C182.544 15.7971 182.508 15.8011 182.467 15.8011H181.249C181.212 15.8011 181.176 15.8011 181.14 15.793C181.107 15.793 181.075 15.7809 181.051 15.7688C181.027 15.7567 181.007 15.7365 180.99 15.7163C180.978 15.6921 180.97 15.6598 180.97 15.6194V15.4053C180.97 15.3447 180.994 15.3044 181.039 15.2761C181.083 15.2478 181.156 15.2397 181.245 15.2397H182.463C182.556 15.2397 182.625 15.2519 182.669 15.2761C182.714 15.3003 182.738 15.3447 182.738 15.4053V15.6194H182.746Z" fill="#727272"/>
<path d="M183.965 15.6194C183.965 15.6598 183.957 15.6921 183.944 15.7163C183.932 15.7405 183.912 15.7567 183.884 15.7688C183.856 15.7809 183.827 15.789 183.795 15.793C183.763 15.7971 183.726 15.8011 183.686 15.8011H182.467C182.431 15.8011 182.395 15.8011 182.358 15.793C182.326 15.793 182.294 15.7809 182.27 15.7688C182.245 15.7567 182.225 15.7365 182.209 15.7163C182.197 15.6921 182.189 15.6598 182.189 15.6194V15.4053C182.189 15.3447 182.213 15.3044 182.258 15.2761C182.302 15.2478 182.375 15.2397 182.463 15.2397H183.682C183.775 15.2397 183.844 15.2519 183.888 15.2761C183.932 15.3003 183.957 15.3447 183.957 15.4053V15.6194H183.965Z" fill="#727272"/>
<path d="M185.179 15.6194C185.179 15.6598 185.171 15.6921 185.159 15.7163C185.147 15.7405 185.127 15.7567 185.098 15.7688C185.07 15.7809 185.042 15.789 185.01 15.793C184.977 15.7971 184.941 15.8011 184.901 15.8011H183.682C183.646 15.8011 183.609 15.8011 183.573 15.793C183.541 15.793 183.508 15.7809 183.484 15.7688C183.46 15.7567 183.44 15.7365 183.424 15.7163C183.412 15.6921 183.404 15.6598 183.404 15.6194V15.4053C183.404 15.3447 183.428 15.3044 183.472 15.2761C183.517 15.2478 183.589 15.2397 183.678 15.2397H184.897C184.99 15.2397 185.058 15.2519 185.103 15.2761C185.147 15.3003 185.171 15.3447 185.171 15.4053V15.6194H185.179Z" fill="#727272"/>
<path d="M184.905 15.7969C184.812 15.7969 184.743 15.7848 184.699 15.7606C184.655 15.7363 184.63 15.6919 184.63 15.6313V15.4173C184.63 15.3769 184.638 15.3446 184.651 15.3204C184.667 15.2961 184.683 15.28 184.711 15.2679C184.739 15.2557 184.768 15.2477 184.8 15.2436C184.832 15.2396 184.868 15.2355 184.909 15.2355H185.833C185.898 14.9973 185.978 14.7832 186.075 14.5975C186.172 14.4117 186.277 14.2461 186.39 14.1007C186.503 13.9594 186.62 13.8382 186.737 13.7413C186.854 13.6444 186.971 13.5636 187.08 13.499C187.189 13.4344 187.286 13.3899 187.374 13.3617C187.463 13.3334 187.532 13.3213 187.588 13.3213C187.734 13.3213 187.871 13.3536 187.996 13.4223C188.121 13.4869 188.234 13.5757 188.327 13.6848C188.42 13.7938 188.492 13.915 188.549 14.0523C188.601 14.1896 188.63 14.3269 188.63 14.4642C188.63 14.6217 188.597 14.7671 188.529 14.8923C188.46 15.0175 188.371 15.1305 188.258 15.2275V15.2436H189.437C189.529 15.2436 189.598 15.2557 189.642 15.28C189.687 15.3042 189.711 15.3486 189.711 15.4092V15.6232C189.711 15.6636 189.703 15.6959 189.691 15.7202C189.675 15.7444 189.659 15.7606 189.63 15.7727C189.606 15.7848 189.574 15.7929 189.542 15.7969C189.509 15.8009 189.473 15.805 189.433 15.805H188.169V15.8211C188.282 15.9059 188.375 16.0109 188.452 16.1402C188.529 16.2694 188.569 16.4229 188.569 16.6046C188.569 16.7742 188.533 16.9237 188.46 17.0529C188.387 17.1821 188.295 17.2912 188.182 17.38C188.069 17.4689 187.943 17.5375 187.806 17.5819C187.669 17.6304 187.536 17.6506 187.407 17.6506C187.302 17.6506 187.189 17.6385 187.068 17.6183C186.947 17.594 186.826 17.5577 186.701 17.5012C186.58 17.4446 186.458 17.3719 186.345 17.279C186.228 17.1862 186.128 17.0731 186.039 16.9358C185.95 16.7985 185.881 16.6369 185.829 16.4511C185.776 16.2654 185.748 16.0473 185.748 15.805H184.905V15.7969ZM186.378 15.7969C186.378 16.0311 186.414 16.2331 186.483 16.3986C186.551 16.5642 186.64 16.7015 186.749 16.8025C186.854 16.9075 186.971 16.9802 187.096 17.0287C187.221 17.0771 187.342 17.1013 187.451 17.1013C187.524 17.1013 187.588 17.0852 187.649 17.0529C187.709 17.0206 187.762 16.9802 187.806 16.9277C187.851 16.8752 187.883 16.8146 187.907 16.75C187.931 16.6813 187.943 16.6127 187.943 16.54C187.943 16.4431 187.923 16.3502 187.883 16.2613C187.843 16.1725 187.786 16.0917 187.713 16.0231C187.641 15.9544 187.552 15.8979 187.447 15.8575C187.342 15.8171 187.225 15.7969 187.096 15.7969H186.374H186.378ZM188.012 14.5773C188.012 14.4884 187.996 14.4036 187.964 14.3188C187.931 14.234 187.887 14.1653 187.835 14.1007C187.782 14.0361 187.722 13.9876 187.653 13.9473C187.584 13.9069 187.52 13.8907 187.455 13.8907C187.415 13.8907 187.366 13.9069 187.31 13.9432C187.249 13.9755 187.189 14.024 187.12 14.0846C187.052 14.1451 186.983 14.2178 186.914 14.3027C186.846 14.3875 186.781 14.4803 186.721 14.5773C186.66 14.6782 186.612 14.7832 186.567 14.8963C186.523 15.0094 186.495 15.1225 186.483 15.2396H187.132C187.262 15.2396 187.383 15.2234 187.492 15.1911C187.6 15.1588 187.693 15.1104 187.77 15.0538C187.847 14.9973 187.907 14.9246 187.952 14.8438C187.992 14.763 188.016 14.6742 188.016 14.5813L188.012 14.5773Z" fill="#727272"/>
<path d="M191.16 15.0458C191.277 15.1104 191.41 15.1589 191.567 15.1912C191.725 15.2235 191.91 15.2397 192.128 15.2397H192.16C192.253 15.2397 192.322 15.2518 192.366 15.276C192.411 15.3002 192.435 15.3447 192.435 15.4052V15.6193C192.435 15.6597 192.427 15.692 192.415 15.7162C192.399 15.7404 192.382 15.7566 192.354 15.7687C192.326 15.7808 192.298 15.7889 192.265 15.7929C192.233 15.797 192.197 15.801 192.156 15.801H192.12C191.854 15.801 191.632 15.7727 191.454 15.7162C191.277 15.6597 191.127 15.591 191.002 15.5062C190.938 15.591 190.853 15.6597 190.748 15.7162C190.643 15.7727 190.506 15.801 190.345 15.801H189.428C189.336 15.801 189.267 15.7889 189.223 15.7647C189.178 15.7404 189.154 15.696 189.154 15.6354V15.4214C189.154 15.381 189.162 15.3487 189.174 15.3245C189.19 15.3002 189.207 15.2841 189.235 15.272C189.263 15.2599 189.291 15.2518 189.324 15.2477C189.356 15.2437 189.392 15.2397 189.433 15.2397H190.207C190.288 15.2397 190.353 15.2114 190.401 15.1508C190.449 15.0943 190.474 15.0054 190.474 14.8843V13.3941H191.164V15.0458H191.16ZM190.377 12.2754C190.377 12.231 190.389 12.1865 190.409 12.1462C190.429 12.1058 190.458 12.0694 190.494 12.0411C190.53 12.0129 190.571 11.9886 190.623 11.9685C190.671 11.9523 190.724 11.9402 190.78 11.9402C190.837 11.9402 190.889 11.9483 190.942 11.9685C190.99 11.9846 191.035 12.0088 191.071 12.0411C191.107 12.0735 191.135 12.1058 191.16 12.1462C191.18 12.1865 191.192 12.231 191.192 12.2754C191.192 12.3198 191.18 12.3642 191.16 12.4046C191.14 12.445 191.107 12.4813 191.071 12.5096C191.035 12.5379 190.99 12.5621 190.942 12.5783C190.893 12.5944 190.837 12.6065 190.78 12.6065C190.663 12.6065 190.571 12.5742 190.49 12.5096C190.413 12.445 190.373 12.3683 190.373 12.2754H190.377Z" fill="#727272"/>
<path d="M192.169 15.797C192.076 15.797 192.007 15.7848 191.963 15.7606C191.918 15.7364 191.894 15.6919 191.894 15.6314V15.4173C191.894 15.3769 191.902 15.3446 191.914 15.3204C191.931 15.2962 191.947 15.28 191.975 15.2679C192.003 15.2558 192.031 15.2477 192.064 15.2437C192.096 15.2396 192.132 15.2356 192.173 15.2356H193.218V11.3223H193.908V15.797H192.173H192.169Z" fill="#727272"/>
<path d="M195.207 11.3264H195.897V15.8011H195.207V11.3264Z" fill="#727272"/>
<path d="M58.9699 38.2323L67.0618 21.1711H70.3423L78.3718 38.2323H74.9351L70.1549 27.9456C70.0924 27.8309 69.9778 27.5599 69.8112 27.1222C69.6446 26.6845 69.4467 26.1946 69.228 25.6631C69.0093 25.1316 68.8114 24.6313 68.6344 24.1832C68.4573 23.735 68.3324 23.4432 68.2803 23.3181L68.9676 23.2973C68.8531 23.5787 68.7073 23.9226 68.5302 24.3499C68.3636 24.7772 68.1866 25.215 67.9887 25.6944C67.8012 26.1634 67.6138 26.6115 67.4367 27.018C67.2597 27.4349 67.1035 27.7788 66.9889 28.0498L62.24 38.2323H58.9595H58.9699ZM62.5524 33.9904L63.7501 31.4578H73.2479L74.6226 33.9904H62.5628H62.5524Z" fill="#C20002"/>
<path d="M82.0586 38.2323V21.1711H85.287V35.6892H95.0869V38.2218H82.069L82.0586 38.2323Z" fill="#C20002"/>
<path d="M108.303 38.2323V21.1711H111.198L123.976 35.1369L123.497 35.3557C123.362 34.6887 123.247 33.9175 123.153 33.042C123.06 32.1665 122.997 31.1973 122.956 30.1446C122.914 29.092 122.893 27.9664 122.893 26.7783V21.1711H126.122V38.2323H123.164L110.594 24.7772L110.927 24.4333C111.062 25.6631 111.177 26.6741 111.26 27.4661C111.344 28.2582 111.396 28.8836 111.437 29.3526C111.479 29.8216 111.5 30.1968 111.51 30.4573C111.51 30.7283 111.521 30.9472 111.521 31.1243V38.2114H108.292L108.303 38.2323Z" fill="#C20002"/>
<path d="M135.807 38.472C134.797 38.472 133.891 38.3053 133.089 37.9822C132.287 37.6591 131.662 37.211 131.193 36.6273C130.725 36.0541 130.496 35.3767 130.496 34.595C130.496 33.9176 130.641 33.3131 130.943 32.792C131.245 32.2708 131.683 31.8435 132.276 31.4996C132.86 31.1557 133.599 30.8951 134.484 30.7179C135.37 30.5408 136.39 30.447 137.546 30.447H141.91L141.639 32.448H137.161C136.567 32.448 136.036 32.4897 135.567 32.5835C135.099 32.6773 134.703 32.8128 134.37 33.0004C134.036 33.188 133.797 33.4069 133.641 33.657C133.485 33.9071 133.401 34.2094 133.401 34.5429C133.401 34.8764 133.505 35.2099 133.734 35.4809C133.953 35.7519 134.255 35.9603 134.63 36.1062C135.005 36.2521 135.442 36.3251 135.942 36.3251C136.661 36.3251 137.338 36.2209 137.984 36.0228C138.629 35.8248 139.212 35.5434 139.712 35.1786C140.223 34.8243 140.618 34.4282 140.889 33.9801L141.608 35.6164C141.191 36.1896 140.67 36.6794 140.056 37.1067C139.442 37.5341 138.775 37.8571 138.056 38.1073C137.338 38.347 136.598 38.472 135.817 38.472H135.807ZM140.493 38.2323V29.8946C140.493 29.1755 140.181 28.6022 139.556 28.1541C138.931 27.7059 138.14 27.4871 137.182 27.4871C136.307 27.4871 135.515 27.633 134.807 27.9248C134.099 28.2166 133.464 28.6648 132.88 29.2693L130.881 27.633C131.818 26.8096 132.828 26.1843 133.912 25.7778C134.995 25.3714 136.161 25.1733 137.421 25.1733C138.681 25.1733 139.65 25.3401 140.525 25.6632C141.399 25.9863 142.076 26.4657 142.555 27.091C143.034 27.7164 143.274 28.4772 143.274 29.3735V38.2428H140.493V38.2323Z" fill="#C20002"/>
<path d="M147.158 38.2323V20.2019H150.231V28.0707L149.689 28.3625C149.887 27.7997 150.272 27.2681 150.856 26.7887C151.439 26.3093 152.116 25.9237 152.918 25.6214C153.719 25.3192 154.532 25.1733 155.365 25.1733C156.563 25.1733 157.552 25.3609 158.354 25.7465C159.145 26.1321 159.749 26.7053 160.145 27.487C160.541 28.2687 160.739 29.2484 160.739 30.4365V38.2323H157.667V30.6032C157.667 29.8737 157.552 29.2692 157.312 28.7898C157.073 28.3104 156.708 27.9664 156.209 27.7476C155.709 27.5287 155.094 27.4349 154.355 27.4662C153.761 27.4662 153.209 27.5391 152.709 27.6955C152.209 27.8518 151.782 28.0602 151.407 28.3416C151.043 28.623 150.751 28.9357 150.543 29.3005C150.335 29.6653 150.231 30.0613 150.231 30.4782V38.2219H147.158V38.2323Z" fill="#C20002"/>
<path d="M171.465 38.4721C170.028 38.4721 168.747 38.1803 167.633 37.6071C166.508 37.0338 165.613 36.2417 164.956 35.2412C164.3 34.2407 163.967 33.1047 163.967 31.8123C163.967 30.52 164.29 29.3839 164.936 28.3938C165.581 27.3933 166.466 26.6116 167.581 26.028C168.695 25.4548 169.955 25.163 171.372 25.163C172.153 25.163 172.903 25.2672 173.632 25.4652C174.361 25.6736 175.006 25.9446 175.589 26.2886C176.162 26.6325 176.62 27.0181 176.943 27.435C177.266 27.8519 177.433 28.2688 177.433 28.6857L176.537 28.7378V20.1812H179.609V38.2115H176.537V35.1683H177.131C177.131 35.5643 176.975 35.9499 176.652 36.3251C176.329 36.7003 175.912 37.0651 175.381 37.3882C174.85 37.7113 174.246 37.9718 173.559 38.1698C172.871 38.3679 172.174 38.4617 171.455 38.4617L171.465 38.4721ZM171.882 36.3043C172.819 36.3043 173.642 36.1063 174.361 35.7206C175.079 35.335 175.642 34.8035 176.048 34.126C176.454 33.4486 176.662 32.6878 176.662 31.8227C176.662 30.9577 176.454 30.1969 176.048 29.5194C175.642 28.842 175.079 28.3105 174.361 27.9248C173.642 27.5392 172.819 27.3412 171.882 27.3412C170.945 27.3412 170.122 27.5392 169.403 27.9248C168.685 28.3105 168.122 28.842 167.716 29.5194C167.31 30.1969 167.102 30.9577 167.102 31.8227C167.102 32.6878 167.31 33.4486 167.716 34.126C168.122 34.8035 168.685 35.335 169.403 35.7206C170.122 36.1063 170.945 36.3043 171.882 36.3043Z" fill="#C20002"/>
<path d="M188.462 38.472C187.452 38.472 186.545 38.3053 185.744 37.9822C184.942 37.6591 184.317 37.211 183.848 36.6273C183.38 36.0541 183.15 35.3767 183.15 34.595C183.15 33.9176 183.296 33.3131 183.598 32.792C183.9 32.2708 184.338 31.8435 184.931 31.4996C185.514 31.1557 186.254 30.8951 187.139 30.7179C188.024 30.5408 189.045 30.447 190.201 30.447H194.565L194.294 32.448H189.816C189.222 32.448 188.691 32.4897 188.222 32.5835C187.754 32.6773 187.358 32.8128 187.025 33.0004C186.691 33.188 186.452 33.4069 186.296 33.657C186.139 33.9071 186.056 34.2094 186.056 34.5429C186.056 34.8764 186.16 35.2099 186.389 35.4809C186.608 35.7519 186.91 35.9603 187.285 36.1062C187.66 36.2521 188.097 36.3251 188.597 36.3251C189.316 36.3251 189.993 36.2209 190.638 36.0228C191.284 35.8248 191.867 35.5434 192.367 35.1786C192.877 34.8243 193.273 34.4282 193.544 33.9801L194.262 35.6164C193.846 36.1896 193.325 36.6794 192.711 37.1067C192.096 37.5341 191.43 37.8571 190.711 38.1073C189.993 38.347 189.253 38.472 188.472 38.472H188.462ZM193.148 38.2323V29.8946C193.148 29.1755 192.836 28.6022 192.211 28.1541C191.586 27.7059 190.795 27.4871 189.836 27.4871C188.962 27.4871 188.17 27.633 187.462 27.9248C186.754 28.2166 186.118 28.6648 185.535 29.2693L183.536 27.633C184.473 26.8096 185.483 26.1843 186.566 25.7778C187.649 25.3714 188.816 25.1733 190.076 25.1733C191.336 25.1733 192.305 25.3401 193.179 25.6632C194.054 25.9863 194.731 26.4657 195.21 27.091C195.689 27.7164 195.929 28.4772 195.929 29.3735V38.2428H193.148V38.2323Z" fill="#C20002"/>
<path d="M68.4853 45.898H64.2754V56.2118H62.8539V45.898H58.644V44.8857H68.5127V45.898H68.4853Z" fill="#727272"/>
<path d="M72.2582 56.2112H70.864V44.5569L72.2582 44.4749V48.4417C73.1876 48.0313 74.1444 47.8398 75.1832 47.8398C76.4134 47.8398 77.3702 48.1134 78.0263 48.6332C78.7097 49.153 79.0378 49.8916 79.0378 50.8218V56.2112H77.6436V50.9039C77.6436 50.2473 77.4249 49.7275 76.9875 49.3719C76.5501 49.0162 75.894 48.8247 75.0466 48.8247C74.0351 48.8247 73.1056 49.0436 72.2582 49.4539V56.2112Z" fill="#727272"/>
<path d="M89.6169 49.0165C90.4097 49.7825 90.7924 50.8221 90.7924 52.1352C90.7924 53.4484 90.4097 54.4606 89.6169 55.254C88.8241 56.0473 87.7033 56.4304 86.2818 56.4304C84.8603 56.4304 83.7668 56.0473 82.974 55.254C82.1813 54.488 81.7712 53.4484 81.7712 52.1352C81.7712 50.8221 82.1813 49.8098 82.974 49.0165C83.7668 48.2505 84.8876 47.8401 86.2818 47.8401C87.676 47.8401 88.8241 48.2231 89.6169 49.0165ZM83.9855 49.7278C83.4661 50.3023 83.1927 51.123 83.1927 52.1352C83.1927 53.1474 83.4388 53.9408 83.9855 54.5427C84.5049 55.1446 85.2703 55.4181 86.2818 55.4181C87.2933 55.4181 88.0861 55.1172 88.6055 54.5427C89.1249 53.9682 89.3709 53.1474 89.3709 52.1352C89.3709 51.123 89.1249 50.3023 88.6055 49.7278C88.0861 49.1533 87.3206 48.8523 86.2818 48.8523C85.243 48.8523 84.5049 49.1533 83.9855 49.7278Z" fill="#727272"/>
<path d="M101.617 55.5817C100.305 56.1288 98.8563 56.4024 97.3255 56.4024C94.8378 56.4024 93.5803 55.4175 93.5803 53.4752V48.031H94.9745V53.4478C94.9745 54.7336 95.7673 55.3902 97.3528 55.3902C98.4463 55.3902 99.3757 55.1987 100.196 54.843V48.031H101.617V55.5543V55.5817Z" fill="#727272"/>
<path d="M108.616 59.3029C107.468 59.3029 106.402 59.1661 105.418 58.8652L105.746 57.9077C106.648 58.1812 107.577 58.318 108.561 58.318C109.545 58.318 110.229 58.1539 110.721 57.7982C111.213 57.4426 111.432 56.9501 111.432 56.3209V55.3634C110.748 55.7191 109.928 55.8832 108.971 55.8832C107.577 55.8832 106.456 55.5549 105.664 54.871C104.871 54.187 104.461 53.2295 104.461 51.9984C104.461 50.7673 104.898 49.7278 105.773 48.9617C106.648 48.2231 107.85 47.8401 109.354 47.8401C110.666 47.8401 111.842 48.059 112.826 48.4967V56.2388C112.826 57.2237 112.47 57.9897 111.705 58.5095C110.967 59.0293 109.928 59.3029 108.616 59.3029ZM105.882 51.9437C105.882 52.8739 106.156 53.6125 106.757 54.1323C107.331 54.6521 108.124 54.9257 109.135 54.9257C110.01 54.9257 110.776 54.7342 111.432 54.3785V49.208C110.776 48.9891 110.065 48.8797 109.354 48.8797C108.288 48.8797 107.44 49.1532 106.812 49.7004C106.183 50.2476 105.882 51.0136 105.882 51.9711V51.9437Z" fill="#727272"/>
<path d="M117.774 56.2112H116.38V44.5569L117.774 44.4749V48.4417C118.704 48.0313 119.66 47.8398 120.699 47.8398C121.929 47.8398 122.886 48.1134 123.542 48.6332C124.226 49.153 124.554 49.8916 124.554 50.8218V56.2112H123.159V50.9039C123.159 50.2473 122.941 49.7275 122.503 49.3719C122.066 49.0162 121.41 48.8247 120.562 48.8247C119.551 48.8247 118.622 49.0436 117.774 49.4539V56.2112Z" fill="#727272"/>
<path d="M132.536 56.239C132.044 56.3485 131.524 56.4032 131.059 56.4032C129.119 56.4032 128.134 55.5277 128.134 53.8042V48.9893H126.631V48.0318H128.134V46.1167L129.529 46.0347V48.0318H132.235V48.9893H129.529V53.8042C129.529 54.3787 129.665 54.7891 129.966 55.0353C130.267 55.2815 130.677 55.4183 131.251 55.4183C131.688 55.4183 132.098 55.3636 132.454 55.2815L132.563 56.239H132.536Z" fill="#727272"/>
<path d="M145.056 56.4029C143.033 56.4029 141.502 55.8831 140.409 54.8435C139.316 53.8039 138.796 52.4087 138.796 50.6578C138.796 48.9069 139.316 47.4296 140.382 46.308C141.42 45.2137 142.979 44.6665 145.002 44.6665C146.15 44.6665 147.271 44.858 148.391 45.241L148.036 46.2532C146.86 45.8976 145.876 45.7334 145.029 45.7334C143.443 45.7334 142.241 46.1985 141.475 47.1013C140.71 48.0041 140.327 49.2079 140.327 50.6852C140.327 52.1625 140.737 53.2841 141.53 54.1049C142.323 54.9529 143.553 55.3633 145.138 55.3633C146.095 55.3633 147.134 55.1718 148.2 54.7888L148.501 55.801C147.489 56.2114 146.368 56.4302 145.084 56.4302L145.056 56.4029Z" fill="#727272"/>
<path d="M158.506 55.8285C157.522 56.2115 156.401 56.403 155.144 56.403C153.558 56.403 152.3 56.02 151.371 55.2813C150.442 54.5427 150.004 53.4757 150.004 52.1079C150.004 50.8494 150.414 49.8098 151.234 49.0438C152.054 48.2504 153.175 47.8674 154.569 47.8674C155.827 47.8674 156.838 48.1957 157.549 48.8797C158.26 49.5636 158.615 50.3843 158.615 51.4239C158.615 51.7796 158.615 52.0805 158.561 52.3814H151.426C151.48 53.3937 151.836 54.1597 152.492 54.6795C153.148 55.1992 154.077 55.4455 155.226 55.4455C156.182 55.4455 157.194 55.254 158.205 54.8983L158.451 55.8558L158.506 55.8285ZM154.597 48.8249C153.695 48.8249 152.957 49.0712 152.41 49.5636C151.863 50.056 151.562 50.7126 151.453 51.5607H157.248C157.248 51.5607 157.248 51.3692 157.248 51.2598C157.248 50.5758 157.03 50.0013 156.565 49.5362C156.1 49.0712 155.444 48.8523 154.569 48.8523L154.597 48.8249Z" fill="#727272"/>
<path d="M162.852 56.2115H161.458V48.6882C162.77 48.141 164.192 47.8674 165.668 47.8674C166.98 47.8674 167.964 48.141 168.62 48.6608C169.276 49.1806 169.632 49.9192 169.632 50.8494V56.2388H168.238V50.9315C168.238 50.2749 168.019 49.7825 167.581 49.4268C167.144 49.0712 166.515 48.8797 165.641 48.8797C164.602 48.8797 163.672 49.0712 162.825 49.4268V56.2388L162.852 56.2115Z" fill="#727272"/>
<path d="M177.614 56.239C177.122 56.3485 176.603 56.4032 176.138 56.4032C174.197 56.4032 173.213 55.5277 173.213 53.8042V48.9893H171.71V48.0318H173.213V46.1167L174.607 46.0347V48.0318H177.314V48.9893H174.607V53.8042C174.607 54.3787 174.744 54.7891 175.045 55.0353C175.346 55.2815 175.756 55.4183 176.33 55.4183C176.767 55.4183 177.177 55.3636 177.532 55.2815L177.642 56.239H177.614Z" fill="#727272"/>
<path d="M187.456 55.8285C186.472 56.2115 185.351 56.403 184.093 56.403C182.508 56.403 181.25 56.02 180.321 55.2813C179.391 54.5427 178.954 53.4757 178.954 52.1079C178.954 50.8494 179.364 49.8098 180.184 49.0438C181.004 48.2504 182.125 47.8674 183.519 47.8674C184.777 47.8674 185.788 48.1957 186.499 48.8797C187.21 49.5636 187.565 50.3843 187.565 51.4239C187.565 51.7796 187.565 52.0805 187.51 52.3814H180.375C180.43 53.3937 180.785 54.1597 181.442 54.6795C182.098 55.1992 183.027 55.4455 184.175 55.4455C185.132 55.4455 186.143 55.254 187.155 54.8983L187.401 55.8558L187.456 55.8285ZM183.546 48.8249C182.644 48.8249 181.906 49.0712 181.36 49.5636C180.813 50.056 180.512 50.7126 180.403 51.5607H186.198C186.198 51.5607 186.198 51.3692 186.198 51.2598C186.198 50.5758 185.979 50.0013 185.515 49.5362C185.05 49.0712 184.394 48.8523 183.519 48.8523L183.546 48.8249Z" fill="#727272"/>
<path d="M190.518 48.6608C191.72 48.1137 193.087 47.8401 194.673 47.8401C195.055 47.8401 195.411 47.8401 195.794 47.9222L195.602 48.907C195.384 48.8523 195.11 48.825 194.782 48.825C193.661 48.825 192.732 49.0165 191.939 49.3721V56.1841H190.545V48.6608H190.518Z" fill="#727272"/>
</g>
<defs>
<clipPath id="clip0_1088_2379">
<rect width="196" height="60" fill="white"/>
</clipPath>
</defs>
</svg>
