<svg width="196" height="61" viewBox="0 0 196 61" fill="none" xmlns="http://www.w3.org/2000/svg">
<g clip-path="url(#clip0_205_8313)">
<path d="M33.351 36.9941C33.351 42.5178 28.8728 46.9994 23.3532 46.9994C17.8336 46.9994 13.3555 42.5178 13.3555 36.9941C13.3555 34.2322 14.4698 31.7309 16.2819 29.9174C18.094 28.1039 20.5934 26.9888 23.3532 26.9888C26.113 26.9888 28.6125 28.1144 30.4246 29.9174C32.2366 31.7309 33.351 34.2322 33.351 36.9941Z" fill="#C20002"/>
<path d="M15.5522 27.6448C11.3865 24.9976 7.26242 22.3816 3.12793 19.7657C2.71135 19.4947 2.05525 19.255 2.39892 18.6818C2.76343 18.0668 3.33621 18.5463 3.72154 18.8172C7.50194 21.4645 11.2719 24.143 15.0419 26.8006C15.3127 26.9987 15.5106 27.2384 15.5522 27.6448Z" fill="#C20002"/>
<path d="M14.9384 23.8615C13.1472 22.2565 11.3455 20.6619 9.55421 19.0569C9.41883 18.9423 9.35634 18.7755 9.26261 18.6296C9.14805 18.4733 9.11681 18.3273 9.42924 18.1085C9.78333 17.8584 9.88747 17.9834 10.0749 18.1189C10.7102 18.6192 11.158 19.2758 11.6579 19.8698C12.5848 20.9642 13.6054 21.9751 14.5739 23.0278C14.7718 23.2466 14.8968 23.5176 15.0634 23.7677C15.0217 23.799 14.9905 23.8303 14.9488 23.8615H14.9384Z" fill="#C20002"/>
<path d="M18.1559 23.028C14.4067 18.5464 10.6679 14.0545 6.90838 9.58337C6.48139 9.07268 5.89819 8.49946 6.36683 8.17637C6.86672 7.83244 7.48117 8.60368 7.7936 9.01015C11.4074 13.6168 14.9691 18.2442 18.5412 22.8612C18.4058 22.9133 18.2808 22.9655 18.1454 23.028H18.1559Z" fill="#C20002"/>
<path d="M20.4568 20.2455C19.9777 19.1199 19.5091 18.0672 19.0821 17.0146C18.3635 15.222 17.6866 13.4293 16.9576 11.6367C16.8118 11.2824 16.8118 11.0114 17.1554 10.9489C17.4366 10.8968 17.6137 11.1677 17.7074 11.4387C18.6863 14.2735 19.6653 17.1084 20.6234 19.9432C20.6442 19.9953 20.5505 20.0683 20.4464 20.2559L20.4568 20.2455Z" fill="#C20002"/>
<path d="M31.1328 27.6448C35.2985 24.9976 39.4226 22.3816 43.5571 19.7657C43.9737 19.4947 44.6298 19.255 44.2861 18.6818C43.9216 18.0668 43.3488 18.5463 42.9635 18.8172C39.1831 21.4645 35.4131 24.143 31.6431 26.8006C31.3723 26.9987 31.1745 27.2384 31.1328 27.6448Z" fill="#C20002"/>
<path d="M31.7461 23.8615C33.5373 22.2565 35.339 20.6619 37.1303 19.0569C37.2657 18.9423 37.3281 18.7755 37.4219 18.6296C37.5364 18.4733 37.5677 18.3273 37.2552 18.1085C36.9012 17.8584 36.797 17.9834 36.6096 18.1189C35.9743 18.6192 35.5265 19.2758 35.0266 19.8698C34.0997 20.9642 33.0791 21.9751 32.1106 23.0278C31.9127 23.2466 31.7877 23.5176 31.6211 23.7677C31.6628 23.799 31.694 23.8303 31.7357 23.8615H31.7461Z" fill="#C20002"/>
<path d="M28.5396 23.028C32.2888 18.5464 36.0275 14.0545 39.7871 9.58337C40.2141 9.07268 40.7973 8.49946 40.3286 8.17637C39.8288 7.83244 39.2143 8.60368 38.9019 9.01015C35.2881 13.6168 31.7264 18.2442 28.1543 22.8612C28.2897 22.9133 28.4147 22.9655 28.55 23.028H28.5396Z" fill="#C20002"/>
<path d="M23.7276 19.5678C23.7485 13.7209 23.7693 7.88449 23.811 2.03764C23.811 1.37062 23.8943 0.557694 23.3319 0.609805C22.7279 0.661916 22.7487 1.65202 22.7591 2.16271C22.9153 8.00956 23.1236 13.8564 23.3215 19.6928C23.4569 19.6511 23.5923 19.6095 23.7276 19.5678Z" fill="#C20002"/>
<path d="M26.2379 20.2455C26.717 19.1199 27.1856 18.0672 27.6126 17.0146C28.3312 15.222 29.0081 13.4293 29.7371 11.6367C29.8829 11.2824 29.8829 11.0114 29.5393 10.9489C29.2581 10.8968 29.081 11.1677 28.9873 11.4387C28.0083 14.2735 27.0294 17.1084 26.0713 19.9432C26.0505 19.9953 26.1442 20.0683 26.2483 20.2559L26.2379 20.2455Z" fill="#C20002"/>
<path d="M36.1826 29.125C37.5678 31.397 38.3592 34.0651 38.3592 36.9208C38.3592 45.2169 31.642 51.9392 23.3522 51.9392C15.0624 51.9392 8.34515 45.2169 8.34515 36.9208C8.34515 34.0338 9.15747 31.3449 10.5634 29.0625L3.46083 24.8311C1.31548 28.3538 0.0761719 32.5018 0.0761719 36.9312C0.0761719 49.7922 10.4905 60.2248 23.3522 60.2248C36.2139 60.2248 46.6282 49.7922 46.6282 36.9312C46.6282 32.5435 45.4202 28.4371 43.306 24.9353L36.1826 29.1354V29.125Z" fill="#727272"/>
<path d="M66.76 52.7629C66.76 52.9818 66.7704 53.159 66.8016 53.3049C66.8328 53.4508 66.8953 53.5654 66.9891 53.6488C67.0828 53.7322 67.2182 53.7947 67.3952 53.8364C67.5723 53.8781 67.791 53.8885 68.0826 53.8885H68.7803C69.0199 53.8885 69.1969 53.9198 69.3115 53.9823C69.426 54.0448 69.4885 54.1595 69.4885 54.3158V54.8682C69.4885 54.9724 69.4677 55.0558 69.4364 55.1183C69.3948 55.1809 69.3531 55.2225 69.2802 55.2538C69.2177 55.2851 69.1344 55.3059 69.0511 55.3163C68.9678 55.3268 68.8741 55.3372 68.7699 55.3372H67.6348C67.1974 55.3372 66.812 55.3059 66.51 55.233C66.1976 55.1704 65.9476 55.0766 65.7393 54.9724C65.5415 54.8578 65.3853 54.7327 65.2707 54.5868C65.1666 54.4409 65.0832 54.2846 65.0312 54.1282C64.5417 54.3679 64.0731 54.5451 63.6357 54.6389C63.1878 54.7431 62.74 54.7952 62.2922 54.7952C61.8965 54.7952 61.5007 54.7535 61.0946 54.6597C60.6884 54.5659 60.3239 54.4305 60.0011 54.2324C59.6782 54.0344 59.4074 53.7843 59.1992 53.482C58.9909 53.1798 58.8867 52.8046 58.8867 52.3773C58.8867 51.9708 58.9909 51.6165 59.1887 51.2934C59.397 50.9703 59.6678 50.6889 60.0011 50.4388C60.3343 50.1886 60.7196 49.9698 61.1466 49.7822C61.5736 49.5946 62.0214 49.4278 62.4693 49.2923C62.9171 49.1464 63.3649 49.0318 63.8023 48.9275C64.2397 48.8233 64.6354 48.7295 64.9895 48.6566V47.802H66.7704V52.7733L66.76 52.7629ZM64.9791 49.9385C64.323 50.0427 63.719 50.1574 63.1774 50.3033C62.6359 50.4388 62.1672 50.6055 61.7819 50.7931C61.3966 50.9807 61.0946 51.1892 60.8759 51.4184C60.6572 51.6477 60.553 51.9083 60.553 52.2001C60.553 52.4398 60.6155 52.6378 60.7405 52.7942C60.8654 52.9505 61.0217 53.086 61.2195 53.1798C61.4174 53.2736 61.6361 53.3466 61.8861 53.3882C62.1256 53.4299 62.3755 53.4508 62.6255 53.4508C63.0941 53.4508 63.5211 53.3987 63.9168 53.3049C64.3126 53.2111 64.6667 53.0756 64.9791 52.8984V49.9385ZM61.8027 45.8426C61.8027 45.7279 61.834 45.6133 61.8861 45.5091C61.9381 45.4048 62.0214 45.311 62.1048 45.2381C62.1985 45.1651 62.3026 45.1026 62.438 45.0505C62.563 45.0088 62.7088 44.9775 62.8546 44.9775C63.0004 44.9775 63.1358 44.9984 63.2607 45.0505C63.3857 45.0922 63.5003 45.1547 63.594 45.2381C63.6877 45.3215 63.7606 45.4048 63.8231 45.5091C63.8752 45.6133 63.9064 45.7279 63.9064 45.8426C63.9064 45.9572 63.8752 46.0719 63.8231 46.1761C63.771 46.2803 63.6877 46.3741 63.594 46.4471C63.5003 46.52 63.3857 46.5826 63.2607 46.6242C63.1358 46.6659 62.99 46.6972 62.8546 46.6972C62.5526 46.6972 62.313 46.6138 62.1048 46.4471C61.9069 46.2803 61.8027 46.0823 61.8027 45.8426ZM64.625 45.8426C64.625 45.7279 64.6563 45.6133 64.7083 45.5091C64.7604 45.4048 64.8437 45.311 64.927 45.2381C65.0208 45.1651 65.1249 45.1026 65.2603 45.0505C65.3853 45.0088 65.5311 44.9775 65.6769 44.9775C65.8227 44.9775 65.9581 44.9984 66.083 45.0505C66.208 45.0922 66.3226 45.1547 66.4163 45.2381C66.51 45.3215 66.5933 45.4048 66.6454 45.5091C66.6975 45.6133 66.7287 45.7279 66.7287 45.8426C66.7287 45.9572 66.6975 46.0719 66.6454 46.1761C66.5933 46.2803 66.51 46.3741 66.4163 46.4471C66.3226 46.52 66.208 46.5826 66.083 46.6242C65.9581 46.6659 65.8123 46.6972 65.6769 46.6972C65.3748 46.6972 65.1353 46.6138 64.927 46.4471C64.7292 46.2803 64.625 46.0823 64.625 45.8426Z" fill="#727272"/>
<path d="M73.1968 53.3152C73.5404 53.5237 73.9362 53.6696 74.3736 53.753C74.811 53.8364 75.3005 53.878 75.8316 53.878C75.9566 53.5654 76.1232 53.211 76.3419 52.8254C76.5606 52.4398 76.8105 52.0437 77.1021 51.6477C77.4041 51.2516 77.7374 50.866 78.1227 50.4908C78.5081 50.1156 78.9351 49.7821 79.4037 49.4903C79.8723 49.1985 80.3826 48.9692 80.9346 48.792C81.4866 48.6148 82.0698 48.5315 82.6946 48.5315C83.4549 48.5315 84.1006 48.6357 84.6421 48.8337C85.1837 49.0317 85.6211 49.3131 85.9751 49.6779C86.3188 50.0323 86.5792 50.4596 86.7354 50.939C86.902 51.4184 86.9749 51.9395 86.9749 52.5023V53.878H89.0161C89.2557 53.878 89.4327 53.9093 89.5473 53.9718C89.6618 54.0344 89.7243 54.149 89.7243 54.3053V54.8577C89.7243 54.9619 89.7035 55.0453 89.6722 55.1079C89.641 55.1704 89.5889 55.2121 89.516 55.2433C89.4431 55.2746 89.3702 55.2955 89.2869 55.3059C89.2036 55.3163 89.1098 55.3267 89.0057 55.3267H75.8108C75.54 55.3267 75.2692 55.3163 74.9984 55.285C74.7277 55.2538 74.4673 55.2121 74.2069 55.1391C73.9466 55.0766 73.7071 54.9932 73.4675 54.889C73.228 54.7848 73.0197 54.6597 72.8323 54.5242C72.6656 54.7535 72.4469 54.9411 72.1553 55.0974C71.8741 55.2538 71.5096 55.3267 71.0722 55.3267H68.7394C68.4999 55.3267 68.3229 55.2955 68.2083 55.2329C68.0937 55.1704 68.0312 55.0557 68.0312 54.8994V54.347C68.0312 54.2428 68.0521 54.1594 68.0833 54.0969C68.1146 54.0344 68.1666 53.9927 68.2395 53.9614C68.302 53.9302 68.3853 53.9093 68.4687 53.8989C68.552 53.8885 68.6457 53.878 68.7498 53.878H70.7181C70.9264 53.878 71.0931 53.8051 71.218 53.6488C71.343 53.5028 71.4055 53.2736 71.4055 52.9609V50.6576H73.1863V53.2944L73.1968 53.3152ZM85.1941 52.6691C85.1941 52.148 85.1212 51.7102 84.9858 51.3663C84.84 51.0224 84.6525 50.741 84.4026 50.5221C84.163 50.3137 83.8714 50.1573 83.5382 50.0739C83.2049 49.9906 82.8508 49.9385 82.4759 49.9385C82.0698 49.9385 81.674 50.001 81.2991 50.1156C80.9242 50.2303 80.5701 50.3866 80.2368 50.5846C79.9036 50.7826 79.6016 51.0119 79.3204 51.2725C79.0392 51.533 78.7893 51.804 78.5601 52.0958C78.331 52.3877 78.1436 52.6899 77.9769 52.9922C77.8103 53.2944 77.6853 53.5966 77.5916 53.878H85.1941V52.6691ZM79.008 46.2386C79.008 46.1239 79.0392 46.0093 79.0913 45.9051C79.1433 45.8008 79.2162 45.707 79.31 45.6341C79.4037 45.5611 79.5078 45.4986 79.6432 45.4465C79.7682 45.4048 79.914 45.3735 80.0598 45.3735C80.2056 45.3735 80.341 45.3944 80.466 45.4465C80.5909 45.4882 80.7055 45.5507 80.7992 45.6341C80.8929 45.707 80.9658 45.8008 81.0283 45.9051C81.0804 46.0093 81.1117 46.1239 81.1117 46.2386C81.1117 46.3532 81.0804 46.4679 81.0283 46.5721C80.9763 46.6763 80.8929 46.7701 80.7992 46.8431C80.7055 46.916 80.5909 46.9786 80.466 47.0202C80.341 47.0619 80.1952 47.0932 80.0598 47.0932C79.7578 47.0932 79.5183 47.0098 79.31 46.8431C79.1121 46.6763 79.008 46.4783 79.008 46.2386Z" fill="#727272"/>
<path d="M92.8694 54.8679C92.8694 54.9721 92.8486 55.0555 92.8173 55.118C92.7757 55.1805 92.734 55.2222 92.6611 55.2535C92.5882 55.2848 92.5153 55.3056 92.432 55.316C92.3487 55.3264 92.255 55.3369 92.1508 55.3369H89.0057C88.9015 55.3369 88.8182 55.3369 88.7245 55.316C88.6412 55.316 88.5579 55.2848 88.4954 55.2535C88.4329 55.2222 88.3808 55.1701 88.3392 55.118C88.2975 55.0555 88.2871 54.9721 88.2871 54.8679V54.3155C88.2871 54.1592 88.3496 54.0549 88.4642 53.982C88.5787 53.909 88.7662 53.8882 88.9953 53.8882H92.1404C92.3799 53.8882 92.557 53.9195 92.6715 53.982C92.7861 54.0445 92.8486 54.1592 92.8486 54.3155V54.8679H92.8694Z" fill="#727272"/>
<path d="M96.0139 54.8679C96.0139 54.9721 95.9931 55.0555 95.9619 55.118C95.9202 55.1805 95.8786 55.2222 95.8057 55.2535C95.7328 55.2848 95.6599 55.3056 95.5765 55.316C95.4932 55.3264 95.3995 55.3369 95.2954 55.3369H92.1502C92.0461 55.3369 91.9628 55.3369 91.869 55.316C91.7857 55.316 91.7024 55.2848 91.6399 55.2535C91.5774 55.2222 91.5254 55.1701 91.4837 55.118C91.4421 55.0555 91.4316 54.9721 91.4316 54.8679V54.3155C91.4316 54.1592 91.4941 54.0549 91.6087 53.982C91.7232 53.909 91.9107 53.8882 92.1398 53.8882H95.2849C95.5245 53.8882 95.7015 53.9195 95.8161 53.982C95.9306 54.0445 95.9931 54.1592 95.9931 54.3155V54.8679H96.0139Z" fill="#727272"/>
<path d="M99.1585 54.8679C99.1585 54.9721 99.1376 55.0555 99.1064 55.118C99.0647 55.1805 99.0231 55.2222 98.9502 55.2535C98.8773 55.2848 98.8044 55.3056 98.7211 55.316C98.6378 55.3264 98.544 55.3369 98.4399 55.3369H95.2948C95.1906 55.3369 95.1073 55.3369 95.0136 55.316C94.9303 55.316 94.8469 55.2848 94.7845 55.2535C94.722 55.2222 94.6699 55.1701 94.6282 55.118C94.5866 55.0555 94.5762 54.9721 94.5762 54.8679V54.3155C94.5762 54.1592 94.6387 54.0549 94.7532 53.982C94.8678 53.909 95.0552 53.8882 95.2843 53.8882H98.4295C98.669 53.8882 98.846 53.9195 98.9606 53.982C99.0752 54.0445 99.1376 54.1592 99.1376 54.3155V54.8679H99.1585Z" fill="#727272"/>
<path d="M102.293 54.8679C102.293 54.9721 102.272 55.0555 102.241 55.118C102.21 55.1805 102.158 55.2222 102.085 55.2535C102.012 55.2848 101.939 55.3056 101.856 55.316C101.773 55.3264 101.679 55.3369 101.575 55.3369H98.4295C98.3254 55.3369 98.2421 55.3369 98.1483 55.316C98.065 55.316 97.9817 55.2848 97.9192 55.2535C97.8567 55.2222 97.8047 55.1701 97.763 55.118C97.7214 55.0555 97.7109 54.9721 97.7109 54.8679V54.3155C97.7109 54.1592 97.7734 54.0549 97.888 53.982C98.0025 53.909 98.19 53.8882 98.4191 53.8882H101.564C101.804 53.8882 101.981 53.9195 102.095 53.982C102.21 54.0445 102.272 54.1592 102.272 54.3155V54.8679H102.293Z" fill="#727272"/>
<path d="M105.438 54.8679C105.438 54.9721 105.417 55.0555 105.386 55.118C105.354 55.1805 105.302 55.2222 105.229 55.2535C105.157 55.2848 105.084 55.3056 105 55.316C104.917 55.3264 104.823 55.3369 104.719 55.3369H101.574C101.48 55.3369 101.387 55.3369 101.293 55.316C101.21 55.316 101.126 55.2848 101.064 55.2535C101.001 55.2222 100.949 55.1701 100.908 55.118C100.876 55.0555 100.855 54.9721 100.855 54.8679V54.3155C100.855 54.1592 100.918 54.0549 101.033 53.982C101.147 53.909 101.335 53.8882 101.564 53.8882H104.709C104.948 53.8882 105.125 53.9195 105.24 53.982C105.354 54.0445 105.417 54.1592 105.417 54.3155V54.8679H105.438Z" fill="#727272"/>
<path d="M108.573 54.8679C108.573 54.9721 108.552 55.0555 108.52 55.118C108.489 55.1805 108.437 55.2222 108.364 55.2535C108.291 55.2848 108.218 55.3056 108.135 55.316C108.052 55.3264 107.958 55.3369 107.854 55.3369H104.709C104.615 55.3369 104.521 55.3369 104.428 55.316C104.344 55.316 104.261 55.2848 104.199 55.2535C104.136 55.2222 104.084 55.1701 104.042 55.118C104.011 55.0555 103.99 54.9721 103.99 54.8679V54.3155C103.99 54.1592 104.053 54.0549 104.167 53.982C104.282 53.909 104.469 53.8882 104.698 53.8882H107.844C108.083 53.8882 108.26 53.9195 108.375 53.982C108.489 54.0445 108.552 54.1592 108.552 54.3155V54.8679H108.573Z" fill="#727272"/>
<path d="M111.719 54.8679C111.719 54.9721 111.698 55.0555 111.667 55.118C111.636 55.1805 111.584 55.2222 111.511 55.2535C111.438 55.2848 111.365 55.3056 111.282 55.316C111.198 55.3264 111.105 55.3369 111 55.3369H107.855C107.762 55.3369 107.668 55.3369 107.574 55.316C107.491 55.316 107.407 55.2848 107.345 55.2535C107.283 55.2222 107.23 55.1701 107.189 55.118C107.158 55.0555 107.137 54.9721 107.137 54.8679V54.3155C107.137 54.1592 107.199 54.0549 107.314 53.982C107.428 53.909 107.616 53.8882 107.845 53.8882H110.99C111.23 53.8882 111.407 53.9195 111.521 53.982C111.636 54.0445 111.698 54.1592 111.698 54.3155V54.8679H111.719Z" fill="#727272"/>
<path d="M114.854 54.8679C114.854 54.9721 114.833 55.0555 114.802 55.118C114.77 55.1805 114.718 55.2222 114.645 55.2535C114.573 55.2848 114.5 55.3056 114.416 55.316C114.333 55.3264 114.239 55.3369 114.135 55.3369H110.99C110.896 55.3369 110.803 55.3369 110.709 55.316C110.626 55.316 110.542 55.2848 110.48 55.2535C110.417 55.2222 110.365 55.1701 110.324 55.118C110.292 55.0555 110.271 54.9721 110.271 54.8679V54.3155C110.271 54.1592 110.334 54.0549 110.449 53.982C110.563 53.909 110.751 53.8882 110.98 53.8882H114.125C114.364 53.8882 114.541 53.9195 114.656 53.982C114.77 54.0445 114.833 54.1592 114.833 54.3155V54.8679H114.854Z" fill="#727272"/>
<path d="M117.998 54.8679C117.998 54.9721 117.977 55.0555 117.946 55.118C117.915 55.1805 117.863 55.2222 117.79 55.2535C117.717 55.2848 117.644 55.3056 117.561 55.316C117.478 55.3264 117.384 55.3369 117.28 55.3369H114.135C114.041 55.3369 113.947 55.3369 113.853 55.316C113.77 55.316 113.687 55.2848 113.624 55.2535C113.562 55.2222 113.51 55.1701 113.468 55.118C113.437 55.0555 113.416 54.9721 113.416 54.8679V54.3155C113.416 54.1592 113.478 54.0549 113.593 53.982C113.708 53.909 113.895 53.8882 114.124 53.8882H117.269C117.509 53.8882 117.686 53.9195 117.8 53.982C117.915 54.0445 117.977 54.1592 117.977 54.3155V54.8679H117.998Z" fill="#727272"/>
<path d="M121.133 54.8679C121.133 54.9721 121.112 55.0555 121.081 55.118C121.05 55.1805 120.998 55.2222 120.925 55.2535C120.852 55.2848 120.779 55.3056 120.696 55.316C120.612 55.3264 120.519 55.3369 120.414 55.3369H117.269C117.176 55.3369 117.082 55.3369 116.988 55.316C116.905 55.316 116.822 55.2848 116.759 55.2535C116.697 55.2222 116.645 55.1701 116.603 55.118C116.572 55.0555 116.551 54.9721 116.551 54.8679V54.3155C116.551 54.1592 116.613 54.0549 116.728 53.982C116.842 53.909 117.03 53.8882 117.259 53.8882H120.404C120.644 53.8882 120.821 53.9195 120.935 53.982C121.05 54.0445 121.112 54.1592 121.112 54.3155V54.8679H121.133Z" fill="#727272"/>
<path d="M124.278 54.8679C124.278 54.9721 124.257 55.0555 124.226 55.118C124.194 55.1805 124.142 55.2222 124.069 55.2535C123.996 55.2848 123.924 55.3056 123.84 55.316C123.757 55.3264 123.663 55.3369 123.559 55.3369H120.414C120.32 55.3369 120.226 55.3369 120.133 55.316C120.049 55.316 119.966 55.2848 119.904 55.2535C119.841 55.2222 119.789 55.1701 119.747 55.118C119.716 55.0555 119.695 54.9721 119.695 54.8679V54.3155C119.695 54.1592 119.758 54.0549 119.872 53.982C119.987 53.909 120.174 53.8882 120.403 53.8882H123.549C123.788 53.8882 123.965 53.9195 124.08 53.982C124.194 54.0445 124.257 54.1592 124.257 54.3155V54.8679H124.278Z" fill="#727272"/>
<path d="M127.412 54.8679C127.412 54.9721 127.392 55.0555 127.36 55.118C127.329 55.1805 127.277 55.2222 127.204 55.2535C127.131 55.2848 127.058 55.3056 126.975 55.316C126.892 55.3264 126.798 55.3369 126.694 55.3369H123.549C123.455 55.3369 123.361 55.3369 123.267 55.316C123.184 55.316 123.101 55.2848 123.038 55.2535C122.976 55.2222 122.924 55.1701 122.882 55.118C122.851 55.0555 122.83 54.9721 122.83 54.8679V54.3155C122.83 54.1592 122.893 54.0549 123.007 53.982C123.122 53.909 123.309 53.8882 123.538 53.8882H126.683C126.923 53.8882 127.1 53.9195 127.215 53.982C127.329 54.0445 127.392 54.1592 127.392 54.3155V54.8679H127.412Z" fill="#727272"/>
<path d="M130.559 54.8679C130.559 54.9721 130.538 55.0555 130.507 55.118C130.476 55.1805 130.423 55.2222 130.351 55.2535C130.278 55.2848 130.205 55.3056 130.121 55.316C130.038 55.3264 129.944 55.3369 129.84 55.3369H126.695C126.601 55.3369 126.508 55.3369 126.414 55.316C126.331 55.316 126.247 55.2848 126.185 55.2535C126.122 55.2222 126.07 55.1701 126.029 55.118C125.997 55.0555 125.977 54.9721 125.977 54.8679V54.3155C125.977 54.1592 126.039 54.0549 126.154 53.982C126.268 53.909 126.456 53.8882 126.685 53.8882H129.83C130.069 53.8882 130.246 53.9195 130.361 53.982C130.476 54.0445 130.538 54.1592 130.538 54.3155V54.8679H130.559Z" fill="#727272"/>
<path d="M133.694 54.8679C133.694 54.9721 133.673 55.0555 133.642 55.118C133.61 55.1805 133.558 55.2222 133.485 55.2535C133.412 55.2848 133.34 55.3056 133.256 55.316C133.173 55.3264 133.079 55.3369 132.975 55.3369H129.83C129.736 55.3369 129.642 55.3369 129.549 55.316C129.465 55.316 129.382 55.2848 129.32 55.2535C129.257 55.2222 129.205 55.1701 129.163 55.118C129.132 55.0555 129.111 54.9721 129.111 54.8679V54.3155C129.111 54.1592 129.174 54.0549 129.288 53.982C129.403 53.909 129.59 53.8882 129.82 53.8882H132.965C133.204 53.8882 133.381 53.9195 133.496 53.982C133.61 54.0445 133.673 54.1592 133.673 54.3155V54.8679H133.694Z" fill="#727272"/>
<path d="M136.838 54.8679C136.838 54.9721 136.817 55.0555 136.786 55.118C136.755 55.1805 136.703 55.2222 136.63 55.2535C136.557 55.2848 136.484 55.3056 136.401 55.316C136.317 55.3264 136.224 55.3369 136.12 55.3369H132.974C132.881 55.3369 132.787 55.3369 132.693 55.316C132.61 55.316 132.527 55.2848 132.464 55.2535C132.402 55.2222 132.35 55.1701 132.308 55.118C132.277 55.0555 132.256 54.9721 132.256 54.8679V54.3155C132.256 54.1592 132.318 54.0549 132.433 53.982C132.547 53.909 132.735 53.8882 132.964 53.8882H136.109C136.349 53.8882 136.526 53.9195 136.64 53.982C136.755 54.0445 136.817 54.1592 136.817 54.3155V54.8679H136.838Z" fill="#727272"/>
<path d="M139.973 54.8679C139.973 54.9721 139.952 55.0555 139.921 55.118C139.89 55.1805 139.838 55.2222 139.765 55.2535C139.692 55.2848 139.619 55.3056 139.536 55.316C139.452 55.3264 139.358 55.3369 139.254 55.3369H136.109C136.015 55.3369 135.922 55.3369 135.828 55.316C135.745 55.316 135.661 55.2848 135.599 55.2535C135.536 55.2222 135.484 55.1701 135.443 55.118C135.411 55.0555 135.391 54.9721 135.391 54.8679V54.3155C135.391 54.1592 135.453 54.0549 135.568 53.982C135.682 53.909 135.87 53.8882 136.099 53.8882H139.244C139.483 53.8882 139.661 53.9195 139.775 53.982C139.89 54.0445 139.952 54.1592 139.952 54.3155V54.8679H139.973Z" fill="#727272"/>
<path d="M143.117 54.8679C143.117 54.9721 143.097 55.0555 143.065 55.118C143.034 55.1805 142.982 55.2222 142.909 55.2535C142.836 55.2848 142.763 55.3056 142.68 55.316C142.597 55.3264 142.503 55.3369 142.399 55.3369H139.254C139.16 55.3369 139.066 55.3369 138.973 55.316C138.889 55.316 138.806 55.2848 138.743 55.2535C138.681 55.2222 138.629 55.1701 138.587 55.118C138.556 55.0555 138.535 54.9721 138.535 54.8679V54.3155C138.535 54.1592 138.598 54.0549 138.712 53.982C138.827 53.909 139.014 53.8882 139.243 53.8882H142.388C142.628 53.8882 142.805 53.9195 142.92 53.982C143.034 54.0445 143.097 54.1592 143.097 54.3155V54.8679H143.117Z" fill="#727272"/>
<path d="M146.262 54.8679C146.262 54.9721 146.241 55.0555 146.21 55.118C146.179 55.1805 146.127 55.2222 146.054 55.2535C145.981 55.2848 145.908 55.3056 145.825 55.316C145.741 55.3264 145.648 55.3369 145.543 55.3369H142.398C142.305 55.3369 142.211 55.3369 142.117 55.316C142.034 55.316 141.95 55.2848 141.888 55.2535C141.825 55.2222 141.773 55.1701 141.732 55.118C141.701 55.0555 141.68 54.9721 141.68 54.8679V54.3155C141.68 54.1592 141.742 54.0549 141.857 53.982C141.971 53.909 142.159 53.8882 142.388 53.8882H145.533C145.773 53.8882 145.95 53.9195 146.064 53.982C146.179 54.0445 146.241 54.1592 146.241 54.3155V54.8679H146.262Z" fill="#727272"/>
<path d="M149.397 54.8679C149.397 54.9721 149.376 55.0555 149.345 55.118C149.313 55.1805 149.261 55.2222 149.188 55.2535C149.116 55.2848 149.043 55.3056 148.959 55.316C148.876 55.3264 148.782 55.3369 148.678 55.3369H145.533C145.439 55.3369 145.346 55.3369 145.252 55.316C145.169 55.316 145.085 55.2848 145.023 55.2535C144.96 55.2222 144.908 55.1701 144.867 55.118C144.835 55.0555 144.814 54.9721 144.814 54.8679V54.3155C144.814 54.1592 144.877 54.0549 144.991 53.982C145.106 53.909 145.294 53.8882 145.523 53.8882H148.668C148.907 53.8882 149.084 53.9195 149.199 53.982C149.313 54.0445 149.376 54.1592 149.376 54.3155V54.8679H149.397Z" fill="#727272"/>
<path d="M152.543 54.8679C152.543 54.9721 152.522 55.0555 152.491 55.118C152.46 55.1805 152.408 55.2222 152.335 55.2535C152.262 55.2848 152.189 55.3056 152.106 55.316C152.023 55.3264 151.929 55.3369 151.825 55.3369H148.68C148.586 55.3369 148.492 55.3369 148.398 55.316C148.315 55.316 148.232 55.2848 148.169 55.2535C148.107 55.2222 148.055 55.1701 148.013 55.118C147.982 55.0555 147.961 54.9721 147.961 54.8679V54.3155C147.961 54.1592 148.023 54.0549 148.138 53.982C148.253 53.909 148.44 53.8882 148.669 53.8882H151.814C152.054 53.8882 152.231 53.9195 152.345 53.982C152.46 54.0445 152.522 54.1592 152.522 54.3155V54.8679H152.543Z" fill="#727272"/>
<path d="M155.678 54.8679C155.678 54.9721 155.657 55.0555 155.626 55.118C155.595 55.1805 155.543 55.2222 155.47 55.2535C155.397 55.2848 155.324 55.3056 155.241 55.316C155.157 55.3264 155.064 55.3369 154.959 55.3369H151.814C151.721 55.3369 151.627 55.3369 151.533 55.316C151.45 55.316 151.366 55.2848 151.304 55.2535C151.242 55.2222 151.189 55.1701 151.148 55.118C151.117 55.0555 151.096 54.9721 151.096 54.8679V54.3155C151.096 54.1592 151.158 54.0549 151.273 53.982C151.387 53.909 151.575 53.8882 151.804 53.8882H154.949C155.189 53.8882 155.366 53.9195 155.48 53.982C155.595 54.0445 155.657 54.1592 155.657 54.3155V54.8679H155.678Z" fill="#727272"/>
<path d="M158.823 54.8679C158.823 54.9721 158.802 55.0555 158.77 55.118C158.739 55.1805 158.687 55.2222 158.614 55.2535C158.541 55.2848 158.468 55.3056 158.385 55.316C158.302 55.3264 158.208 55.3369 158.104 55.3369H154.959C154.865 55.3369 154.771 55.3369 154.678 55.316C154.594 55.316 154.511 55.2848 154.449 55.2535C154.386 55.2222 154.334 55.1701 154.292 55.118C154.261 55.0555 154.24 54.9721 154.24 54.8679V54.3155C154.24 54.1592 154.303 54.0549 154.417 53.982C154.532 53.909 154.719 53.8882 154.948 53.8882H158.094C158.333 53.8882 158.51 53.9195 158.625 53.982C158.739 54.0445 158.802 54.1592 158.802 54.3155V54.8679H158.823Z" fill="#727272"/>
<path d="M161.957 54.8679C161.957 54.9721 161.936 55.0555 161.905 55.118C161.874 55.1805 161.822 55.2222 161.749 55.2535C161.676 55.2848 161.603 55.3056 161.52 55.316C161.437 55.3264 161.343 55.3369 161.239 55.3369H158.094C158 55.3369 157.906 55.3369 157.812 55.316C157.729 55.316 157.646 55.2848 157.583 55.2535C157.521 55.2222 157.469 55.1701 157.427 55.118C157.396 55.0555 157.375 54.9721 157.375 54.8679V54.3155C157.375 54.1592 157.437 54.0549 157.552 53.982C157.667 53.909 157.854 53.8882 158.083 53.8882H161.228C161.468 53.8882 161.645 53.9195 161.759 53.982C161.874 54.0445 161.936 54.1592 161.936 54.3155V54.8679H161.957Z" fill="#727272"/>
<path d="M165.102 54.8679C165.102 54.9721 165.081 55.0555 165.05 55.118C165.019 55.1805 164.966 55.2222 164.894 55.2535C164.821 55.2848 164.748 55.3056 164.664 55.316C164.581 55.3264 164.487 55.3369 164.383 55.3369H161.238C161.144 55.3369 161.051 55.3369 160.957 55.316C160.874 55.316 160.79 55.2848 160.728 55.2535C160.665 55.2222 160.613 55.1701 160.572 55.118C160.54 55.0555 160.52 54.9721 160.52 54.8679V54.3155C160.52 54.1592 160.582 54.0549 160.697 53.982C160.811 53.909 160.999 53.8882 161.228 53.8882H164.373C164.612 53.8882 164.789 53.9195 164.904 53.982C165.019 54.0445 165.081 54.1592 165.081 54.3155V54.8679H165.102Z" fill="#727272"/>
<path d="M168.237 54.8679C168.237 54.9721 168.216 55.0555 168.185 55.118C168.153 55.1805 168.101 55.2222 168.028 55.2535C167.955 55.2848 167.883 55.3056 167.799 55.316C167.716 55.3264 167.622 55.3369 167.518 55.3369H164.373C164.279 55.3369 164.185 55.3369 164.092 55.316C164.008 55.316 163.925 55.2848 163.863 55.2535C163.8 55.2222 163.748 55.1701 163.706 55.118C163.675 55.0555 163.654 54.9721 163.654 54.8679V54.3155C163.654 54.1592 163.717 54.0549 163.831 53.982C163.946 53.909 164.133 53.8882 164.362 53.8882H167.508C167.747 53.8882 167.924 53.9195 168.039 53.982C168.153 54.0445 168.216 54.1592 168.216 54.3155V54.8679H168.237Z" fill="#727272"/>
<path d="M167.528 55.3268C167.289 55.3268 167.112 55.2955 166.997 55.233C166.883 55.1705 166.82 55.0558 166.82 54.8995V54.3471C166.82 54.2429 166.841 54.1595 166.872 54.097C166.914 54.0344 166.956 53.9927 167.029 53.9615C167.101 53.9302 167.174 53.9094 167.258 53.8989C167.341 53.8885 167.435 53.8781 167.539 53.8781H169.924C170.09 53.2632 170.299 52.7108 170.549 52.2314C170.799 51.752 171.069 51.3247 171.361 50.9495C171.653 50.5847 171.955 50.272 172.257 50.0219C172.559 49.7718 172.861 49.5633 173.142 49.3966C173.423 49.2298 173.673 49.1152 173.902 49.0422C174.131 48.9693 174.308 48.938 174.454 48.938C174.829 48.938 175.183 49.0214 175.506 49.1985C175.829 49.3653 176.12 49.5946 176.36 49.876C176.599 50.1574 176.787 50.47 176.933 50.8244C177.068 51.1788 177.141 51.5331 177.141 51.8875C177.141 52.2939 177.058 52.6691 176.881 52.9922C176.703 53.3153 176.474 53.6071 176.183 53.8573V53.8989H179.224C179.463 53.8989 179.64 53.9302 179.755 53.9927C179.869 54.0553 179.932 54.1699 179.932 54.3263V54.8786C179.932 54.9829 179.911 55.0662 179.88 55.1288C179.838 55.1913 179.797 55.233 179.724 55.2643C179.661 55.2955 179.578 55.3164 179.495 55.3268C179.411 55.3372 179.318 55.3476 179.213 55.3476H175.954V55.3893C176.245 55.6082 176.485 55.8792 176.683 56.2127C176.881 56.5462 176.985 56.9422 176.985 57.4112C176.985 57.849 176.891 58.2346 176.703 58.5681C176.516 58.9016 176.277 59.183 175.985 59.4123C175.693 59.6416 175.37 59.8188 175.016 59.9334C174.662 60.0585 174.319 60.1106 173.985 60.1106C173.715 60.1106 173.423 60.0793 173.111 60.0272C172.798 59.9647 172.486 59.8709 172.163 59.725C171.85 59.579 171.538 59.3914 171.246 59.1517C170.944 58.912 170.684 58.6202 170.455 58.2658C170.226 57.9115 170.049 57.4946 169.913 57.0152C169.778 56.5358 169.705 55.973 169.705 55.3476H167.528V55.3268ZM171.33 55.3268C171.33 55.9313 171.423 56.4524 171.6 56.8797C171.778 57.307 172.007 57.6614 172.288 57.9219C172.559 58.1929 172.861 58.3805 173.183 58.5056C173.506 58.6306 173.819 58.6932 174.1 58.6932C174.287 58.6932 174.454 58.6515 174.61 58.5681C174.766 58.4847 174.902 58.3805 175.016 58.245C175.131 58.1095 175.214 57.9532 175.277 57.7864C175.339 57.6092 175.37 57.4321 175.37 57.2445C175.37 56.9943 175.318 56.7546 175.214 56.5253C175.11 56.2961 174.964 56.0876 174.777 55.9104C174.589 55.7333 174.36 55.5873 174.09 55.4831C173.819 55.3789 173.517 55.3268 173.183 55.3268H171.319H171.33ZM175.548 52.1793C175.548 51.95 175.506 51.7311 175.423 51.5123C175.339 51.2934 175.225 51.1162 175.089 50.9495C174.954 50.7827 174.798 50.6576 174.621 50.5534C174.444 50.4492 174.277 50.4075 174.11 50.4075C174.006 50.4075 173.881 50.4492 173.735 50.543C173.579 50.6264 173.423 50.7514 173.246 50.9078C173.069 51.0641 172.892 51.2517 172.715 51.4706C172.538 51.6894 172.371 51.9292 172.215 52.1793C172.059 52.4398 171.934 52.7108 171.819 53.0026C171.705 53.2945 171.632 53.5863 171.6 53.8885H173.277C173.61 53.8885 173.923 53.8468 174.204 53.7635C174.485 53.6801 174.725 53.555 174.923 53.4091C175.121 53.2632 175.277 53.0756 175.391 52.8672C175.495 52.6587 175.558 52.4294 175.558 52.1897L175.548 52.1793Z" fill="#727272"/>
<path d="M183.672 53.3882C183.974 53.555 184.318 53.68 184.724 53.7634C185.13 53.8468 185.609 53.8885 186.171 53.8885H186.255C186.494 53.8885 186.671 53.9197 186.786 53.9823C186.9 54.0448 186.963 54.1594 186.963 54.3158V54.8681C186.963 54.9724 186.942 55.0557 186.911 55.1183C186.869 55.1808 186.828 55.2225 186.755 55.2538C186.682 55.285 186.609 55.3059 186.526 55.3163C186.442 55.3267 186.349 55.3371 186.244 55.3371H186.151C185.463 55.3371 184.89 55.2642 184.432 55.1183C183.974 54.9724 183.589 54.7952 183.266 54.5763C183.099 54.7952 182.881 54.9724 182.61 55.1183C182.339 55.2642 181.985 55.3371 181.568 55.3371H179.204C178.965 55.3371 178.788 55.3059 178.673 55.2433C178.559 55.1808 178.496 55.0662 178.496 54.9098V54.3575C178.496 54.2532 178.517 54.1699 178.548 54.1073C178.59 54.0448 178.631 54.0031 178.704 53.9718C178.777 53.9406 178.85 53.9197 178.933 53.9093C179.017 53.8989 179.111 53.8885 179.215 53.8885H181.214C181.423 53.8885 181.589 53.8155 181.714 53.6592C181.839 53.5133 181.902 53.284 181.902 52.9713V49.1255H183.682V53.3882H183.672ZM181.652 46.2386C181.652 46.1239 181.683 46.0093 181.735 45.9051C181.787 45.8008 181.86 45.707 181.954 45.6341C182.047 45.5611 182.152 45.4986 182.287 45.4465C182.412 45.4048 182.547 45.3735 182.693 45.3735C182.839 45.3735 182.974 45.3944 183.11 45.4465C183.235 45.4882 183.349 45.5507 183.443 45.6341C183.537 45.7175 183.61 45.8008 183.672 45.9051C183.724 46.0093 183.755 46.1239 183.755 46.2386C183.755 46.3532 183.724 46.4679 183.672 46.5721C183.62 46.6763 183.537 46.7701 183.443 46.8431C183.349 46.916 183.235 46.9786 183.11 47.0202C182.985 47.0619 182.839 47.0932 182.693 47.0932C182.391 47.0932 182.152 47.0098 181.943 46.8431C181.745 46.6763 181.641 46.4783 181.641 46.2386H181.652Z" fill="#727272"/>
<path d="M186.275 55.3266C186.035 55.3266 185.858 55.2953 185.743 55.2328C185.629 55.1703 185.566 55.0556 185.566 54.8993V54.3469C185.566 54.2427 185.587 54.1593 185.618 54.0968C185.66 54.0342 185.702 53.9926 185.775 53.9613C185.848 53.93 185.92 53.9092 186.004 53.8988C186.087 53.8883 186.181 53.8779 186.285 53.8779H188.982V43.7788H190.763V55.3266H186.285H186.275Z" fill="#727272"/>
<path d="M194.117 43.7891H195.898V55.3368H194.117V43.7891Z" fill="#727272"/>
<path d="M58.9694 38.547L67.0613 21.4858H70.3418L78.3713 38.547H74.9346L70.1544 28.2603C70.0919 28.1456 69.9773 27.8746 69.8107 27.4369C69.6441 26.9992 69.4462 26.5093 69.2275 25.9778C69.0088 25.4463 68.8109 24.946 68.6339 24.4979C68.4569 24.0497 68.3319 23.7579 68.2798 23.6328L68.9672 23.612C68.8526 23.8934 68.7068 24.2373 68.5298 24.6646C68.3631 25.0919 68.1861 25.5296 67.9882 26.0091C67.8007 26.4781 67.6133 26.9262 67.4362 27.3327C67.2592 27.7496 67.103 28.0935 66.9884 28.3645L62.2395 38.547H58.959H58.9694ZM62.5519 34.3051L63.7496 31.7725H73.2474L74.6221 34.3051H62.5623H62.5519Z" fill="#C20002"/>
<path d="M82.0586 38.547V21.4858H85.287V36.0039H95.0869V38.5365H82.069L82.0586 38.547Z" fill="#C20002"/>
<path d="M108.301 38.547V21.4858H111.197L123.975 35.4516L123.496 35.6704C123.361 35.0034 123.246 34.2322 123.152 33.3567C123.059 32.4812 122.996 31.512 122.954 30.4593C122.913 29.4067 122.892 28.2811 122.892 27.093V21.4858H126.12V38.547H123.163L110.593 25.0919L110.926 24.748C111.061 25.9778 111.176 26.9888 111.259 27.7808C111.342 28.5729 111.394 29.1983 111.436 29.6673C111.478 30.1363 111.499 30.5115 111.509 30.772C111.509 31.043 111.519 31.2618 111.519 31.439V38.5261H108.291L108.301 38.547Z" fill="#C20002"/>
<path d="M135.805 38.7865C134.795 38.7865 133.889 38.6197 133.087 38.2967C132.285 37.9736 131.661 37.5254 131.192 36.9418C130.723 36.3686 130.494 35.6911 130.494 34.9095C130.494 34.232 130.64 33.6275 130.942 33.1064C131.244 32.5853 131.681 32.158 132.275 31.8141C132.858 31.4701 133.598 31.2096 134.483 31.0324C135.368 30.8552 136.389 30.7614 137.545 30.7614H141.908L141.637 32.7625H137.159C136.566 32.7625 136.035 32.8042 135.566 32.898C135.097 32.9918 134.702 33.1273 134.368 33.3149C134.035 33.5025 133.795 33.7213 133.639 33.9715C133.483 34.2216 133.4 34.5238 133.4 34.8573C133.4 35.1908 133.504 35.5244 133.733 35.7953C133.952 36.0663 134.254 36.2748 134.629 36.4207C135.004 36.5666 135.441 36.6395 135.941 36.6395C136.659 36.6395 137.336 36.5353 137.982 36.3373C138.628 36.1393 139.211 35.8579 139.711 35.4931C140.221 35.1387 140.617 34.7427 140.888 34.2945L141.606 35.9308C141.19 36.504 140.669 36.9939 140.054 37.4212C139.44 37.8485 138.774 38.1716 138.055 38.4217C137.336 38.6614 136.597 38.7865 135.816 38.7865H135.805ZM140.492 38.5468V30.209C140.492 29.4899 140.179 28.9167 139.555 28.4685C138.93 28.0204 138.138 27.8015 137.18 27.8015C136.305 27.8015 135.514 27.9474 134.806 28.2392C134.097 28.5311 133.462 28.9792 132.879 29.5837L130.879 27.9474C131.817 27.1241 132.827 26.4987 133.91 26.0923C134.993 25.6858 136.16 25.4878 137.42 25.4878C138.68 25.4878 139.648 25.6545 140.523 25.9776C141.398 26.3007 142.075 26.7801 142.554 27.4055C143.033 28.0308 143.273 28.7916 143.273 29.6879V38.5572H140.492V38.5468Z" fill="#C20002"/>
<path d="M147.158 38.547V20.5166H150.23V28.3854L149.689 28.6772C149.887 28.1144 150.272 27.5828 150.855 27.1034C151.438 26.624 152.115 26.2384 152.917 25.9361C153.719 25.6339 154.532 25.488 155.365 25.488C156.562 25.488 157.552 25.6756 158.354 26.0612C159.145 26.4468 159.749 27.02 160.145 27.8017C160.541 28.5834 160.738 29.5631 160.738 30.7512V38.547H157.666V30.9179C157.666 30.1884 157.552 29.5839 157.312 29.1045C157.073 28.6251 156.708 28.2811 156.208 28.0623C155.708 27.8434 155.094 27.7496 154.355 27.7809C153.761 27.7809 153.209 27.8538 152.709 28.0102C152.209 28.1665 151.782 28.3749 151.407 28.6563C151.043 28.9377 150.751 29.2504 150.543 29.6152C150.335 29.9799 150.23 30.376 150.23 30.7929V38.5366H147.158V38.547Z" fill="#C20002"/>
<path d="M171.465 38.7865C170.028 38.7865 168.747 38.4947 167.633 37.9215C166.508 37.3483 165.612 36.5562 164.956 35.5557C164.3 34.5551 163.967 33.4191 163.967 32.1268C163.967 30.8344 164.29 29.6984 164.935 28.7083C165.581 27.7078 166.466 26.9261 167.581 26.3425C168.695 25.7692 169.955 25.4774 171.371 25.4774C172.152 25.4774 172.902 25.5816 173.631 25.7797C174.36 25.9881 175.006 26.2591 175.589 26.603C176.162 26.9469 176.62 27.3326 176.943 27.7494C177.266 28.1663 177.433 28.5832 177.433 29.0001L176.537 29.0522V20.4956H179.609V38.526H176.537V35.4827H177.131C177.131 35.8788 176.974 36.2644 176.651 36.6396C176.329 37.0148 175.912 37.3795 175.381 37.7026C174.85 38.0257 174.246 38.2863 173.558 38.4843C172.871 38.6823 172.173 38.7761 171.455 38.7761L171.465 38.7865ZM171.882 36.6187C172.819 36.6187 173.642 36.4207 174.36 36.0351C175.079 35.6495 175.641 35.1179 176.047 34.4405C176.454 33.7631 176.662 33.0022 176.662 32.1372C176.662 31.2721 176.454 30.5113 176.047 29.8339C175.641 29.1564 175.079 28.6249 174.36 28.2393C173.642 27.8537 172.819 27.6556 171.882 27.6556C170.944 27.6556 170.122 27.8537 169.403 28.2393C168.684 28.6249 168.122 29.1564 167.716 29.8339C167.31 30.5113 167.102 31.2721 167.102 32.1372C167.102 33.0022 167.31 33.7631 167.716 34.4405C168.122 35.1179 168.684 35.6495 169.403 36.0351C170.122 36.4207 170.944 36.6187 171.882 36.6187Z" fill="#C20002"/>
<path d="M188.462 38.7865C187.452 38.7865 186.545 38.6197 185.744 38.2967C184.942 37.9736 184.317 37.5254 183.848 36.9418C183.38 36.3686 183.15 35.6911 183.15 34.9095C183.15 34.232 183.296 33.6275 183.598 33.1064C183.9 32.5853 184.338 32.158 184.931 31.8141C185.514 31.4701 186.254 31.2096 187.139 31.0324C188.024 30.8552 189.045 30.7614 190.201 30.7614H194.565L194.294 32.7625H189.816C189.222 32.7625 188.691 32.8042 188.222 32.898C187.754 32.9918 187.358 33.1273 187.025 33.3149C186.691 33.5025 186.452 33.7213 186.296 33.9715C186.139 34.2216 186.056 34.5238 186.056 34.8573C186.056 35.1908 186.16 35.5244 186.389 35.7953C186.608 36.0663 186.91 36.2748 187.285 36.4207C187.66 36.5666 188.097 36.6395 188.597 36.6395C189.316 36.6395 189.993 36.5353 190.638 36.3373C191.284 36.1393 191.867 35.8579 192.367 35.4931C192.877 35.1387 193.273 34.7427 193.544 34.2945L194.262 35.9308C193.846 36.504 193.325 36.9939 192.711 37.4212C192.096 37.8485 191.43 38.1716 190.711 38.4217C189.993 38.6614 189.253 38.7865 188.472 38.7865H188.462ZM193.148 38.5468V30.209C193.148 29.4899 192.836 28.9167 192.211 28.4685C191.586 28.0204 190.795 27.8015 189.836 27.8015C188.962 27.8015 188.17 27.9474 187.462 28.2392C186.754 28.5311 186.118 28.9792 185.535 29.5837L183.536 27.9474C184.473 27.1241 185.483 26.4987 186.566 26.0923C187.649 25.6858 188.816 25.4878 190.076 25.4878C191.336 25.4878 192.305 25.6545 193.179 25.9776C194.054 26.3007 194.731 26.7801 195.21 27.4055C195.689 28.0308 195.929 28.7916 195.929 29.6879V38.5572H193.148V38.5468Z" fill="#C20002"/>
<path d="M147.294 12.1786H145.69V16.1078H145.149V12.1786H143.545V11.793H147.304V12.1786H147.294Z" fill="#727272"/>
<path d="M148.73 16.1078H148.199V11.668L148.73 11.6367V13.1479C149.084 12.9916 149.449 12.9186 149.845 12.9186C150.313 12.9186 150.678 13.0229 150.928 13.2209C151.188 13.4189 151.313 13.7003 151.313 14.0547V16.1078H150.782V14.0859C150.782 13.8358 150.699 13.6378 150.532 13.5023C150.365 13.3668 150.115 13.2938 149.793 13.2938C149.407 13.2938 149.053 13.3772 148.73 13.5336V16.1078Z" fill="#727272"/>
<path d="M155.344 13.3666C155.646 13.6584 155.792 14.0545 155.792 14.5547C155.792 15.055 155.646 15.4406 155.344 15.7429C155.042 16.0451 154.615 16.191 154.074 16.191C153.532 16.191 153.116 16.0451 152.814 15.7429C152.512 15.451 152.355 15.055 152.355 14.5547C152.355 14.0545 152.512 13.6689 152.814 13.3666C153.116 13.0748 153.543 12.9185 154.074 12.9185C154.605 12.9185 155.042 13.0644 155.344 13.3666ZM153.199 13.6376C153.001 13.8565 152.897 14.1691 152.897 14.5547C152.897 14.9404 152.991 15.2426 153.199 15.4719C153.397 15.7012 153.688 15.8054 154.074 15.8054C154.459 15.8054 154.761 15.6908 154.959 15.4719C155.157 15.253 155.251 14.9404 155.251 14.5547C155.251 14.1691 155.157 13.8565 154.959 13.6376C154.761 13.4187 154.47 13.3041 154.074 13.3041C153.678 13.3041 153.397 13.4187 153.199 13.6376Z" fill="#727272"/>
<path d="M159.915 15.8682C159.415 16.0767 158.863 16.1809 158.28 16.1809C157.333 16.1809 156.854 15.8057 156.854 15.0657V12.9917H157.385V15.0553C157.385 15.5451 157.687 15.7953 158.291 15.7953C158.707 15.7953 159.061 15.7223 159.374 15.5868V12.9917H159.915V15.8578V15.8682Z" fill="#727272"/>
<path d="M162.583 17.2854C162.146 17.2854 161.739 17.2332 161.365 17.1186L161.489 16.7538C161.833 16.858 162.187 16.9102 162.562 16.9102C162.937 16.9102 163.197 16.8476 163.385 16.7121C163.572 16.5766 163.656 16.389 163.656 16.1493V15.7846C163.395 15.92 163.083 15.9826 162.718 15.9826C162.187 15.9826 161.76 15.8575 161.458 15.597C161.156 15.3364 161 14.9716 161 14.5026C161 14.0336 161.167 13.6376 161.5 13.3458C161.833 13.0644 162.291 12.9185 162.864 12.9185C163.364 12.9185 163.812 13.0018 164.187 13.1686V16.1181C164.187 16.4933 164.051 16.7851 163.76 16.9831C163.479 17.1811 163.083 17.2854 162.583 17.2854ZM161.542 14.4818C161.542 14.8361 161.646 15.1175 161.875 15.3156C162.094 15.5136 162.396 15.6178 162.781 15.6178C163.114 15.6178 163.406 15.5448 163.656 15.4094V13.4396C163.406 13.3562 163.135 13.3145 162.864 13.3145C162.458 13.3145 162.135 13.4187 161.896 13.6272C161.656 13.8356 161.542 14.1274 161.542 14.4922V14.4818Z" fill="#727272"/>
<path d="M166.07 16.1078H165.539V11.668L166.07 11.6367V13.1479C166.424 12.9916 166.789 12.9186 167.185 12.9186C167.653 12.9186 168.018 13.0229 168.268 13.2209C168.528 13.4189 168.653 13.7003 168.653 14.0547V16.1078H168.122V14.0859C168.122 13.8358 168.039 13.6378 167.872 13.5023C167.705 13.3668 167.455 13.2938 167.132 13.2938C166.747 13.2938 166.393 13.3772 166.07 13.5336V16.1078Z" fill="#727272"/>
<path d="M171.695 16.1184C171.507 16.1601 171.309 16.181 171.132 16.181C170.393 16.181 170.018 15.8475 170.018 15.1909V13.3566H169.445V12.9918H170.018V12.2622L170.549 12.231V12.9918H171.58V13.3566H170.549V15.1909C170.549 15.4097 170.601 15.5661 170.716 15.6599C170.83 15.7537 170.987 15.8058 171.205 15.8058C171.372 15.8058 171.528 15.7849 171.664 15.7537L171.705 16.1184H171.695Z" fill="#727272"/>
<path d="M176.465 16.1806C175.694 16.1806 175.111 15.9826 174.695 15.5865C174.278 15.1905 174.08 14.659 174.08 13.9919C174.08 13.3249 174.278 12.7621 174.684 12.3348C175.08 11.9179 175.673 11.7095 176.444 11.7095C176.882 11.7095 177.309 11.7824 177.736 11.9283L177.6 12.314C177.152 12.1785 176.777 12.1159 176.455 12.1159C175.851 12.1159 175.392 12.2931 175.101 12.637C174.809 12.981 174.663 13.4396 174.663 14.0024C174.663 14.5652 174.819 14.9925 175.122 15.3051C175.424 15.6282 175.892 15.7845 176.496 15.7845C176.861 15.7845 177.256 15.7116 177.663 15.5657L177.777 15.9513C177.392 16.1076 176.965 16.191 176.475 16.191L176.465 16.1806Z" fill="#727272"/>
<path d="M181.588 15.9621C181.214 16.108 180.787 16.1809 180.308 16.1809C179.703 16.1809 179.224 16.035 178.87 15.7536C178.516 15.4722 178.35 15.0657 178.35 14.5446C178.35 14.0652 178.506 13.6692 178.818 13.3774C179.131 13.0751 179.558 12.9292 180.089 12.9292C180.568 12.9292 180.953 13.0543 181.224 13.3148C181.495 13.5754 181.63 13.888 181.63 14.2841C181.63 14.4196 181.63 14.5342 181.609 14.6489H178.891C178.912 15.0345 179.047 15.3263 179.297 15.5243C179.547 15.7223 179.901 15.8161 180.339 15.8161C180.703 15.8161 181.089 15.7432 181.474 15.6077L181.568 15.9725L181.588 15.9621ZM180.099 13.294C179.756 13.294 179.474 13.3878 179.266 13.5754C179.058 13.763 178.943 14.0131 178.902 14.3362H181.109C181.109 14.3362 181.109 14.2632 181.109 14.2215C181.109 13.961 181.026 13.7421 180.849 13.565C180.672 13.3878 180.422 13.3044 180.089 13.3044L180.099 13.294Z" fill="#727272"/>
<path d="M183.244 16.108H182.713V13.2419C183.213 13.0334 183.754 12.9292 184.317 12.9292C184.817 12.9292 185.191 13.0334 185.441 13.2314C185.691 13.4295 185.827 13.7109 185.827 14.0652V16.1184H185.296V14.0965C185.296 13.8464 185.212 13.6588 185.046 13.5233C184.879 13.3878 184.64 13.3148 184.306 13.3148C183.911 13.3148 183.556 13.3878 183.234 13.5233V16.1184L183.244 16.108Z" fill="#727272"/>
<path d="M188.869 16.1184C188.681 16.1601 188.483 16.181 188.306 16.181C187.567 16.181 187.192 15.8475 187.192 15.1909V13.3566H186.619V12.9918H187.192V12.2622L187.723 12.231V12.9918H188.754V13.3566H187.723V15.1909C187.723 15.4097 187.775 15.5661 187.89 15.6599C188.004 15.7537 188.16 15.8058 188.379 15.8058C188.546 15.8058 188.702 15.7849 188.837 15.7537L188.879 16.1184H188.869Z" fill="#727272"/>
<path d="M192.618 15.9621C192.243 16.108 191.816 16.1809 191.337 16.1809C190.733 16.1809 190.254 16.035 189.9 15.7536C189.546 15.4722 189.379 15.0657 189.379 14.5446C189.379 14.0652 189.535 13.6692 189.848 13.3774C190.16 13.0751 190.587 12.9292 191.118 12.9292C191.597 12.9292 191.982 13.0543 192.253 13.3148C192.524 13.5754 192.659 13.888 192.659 14.2841C192.659 14.4196 192.659 14.5342 192.639 14.6489H189.92C189.941 15.0345 190.077 15.3263 190.327 15.5243C190.577 15.7223 190.931 15.8161 191.368 15.8161C191.733 15.8161 192.118 15.7432 192.503 15.6077L192.597 15.9725L192.618 15.9621ZM191.129 13.294C190.785 13.294 190.504 13.3878 190.295 13.5754C190.087 13.763 189.973 14.0131 189.931 14.3362H192.139C192.139 14.3362 192.139 14.2632 192.139 14.2215C192.139 13.961 192.055 13.7421 191.878 13.565C191.701 13.3878 191.451 13.3044 191.118 13.3044L191.129 13.294Z" fill="#727272"/>
<path d="M193.783 13.2311C194.241 13.0227 194.762 12.9185 195.366 12.9185C195.512 12.9185 195.647 12.9185 195.793 12.9497L195.72 13.3249C195.637 13.3041 195.533 13.2937 195.408 13.2937C194.981 13.2937 194.627 13.3666 194.325 13.5021V16.0972H193.794V13.2311H193.783Z" fill="#727272"/>
</g>
<defs>
<clipPath id="clip0_205_8313">
<rect width="196" height="60" fill="white" transform="translate(0 0.314453)"/>
</clipPath>
</defs>
</svg>
