<svg width="40" height="20" viewBox="0 0 40 20" fill="none" xmlns="http://www.w3.org/2000/svg">
<path d="M37.2236 0.448398L19.9982 16.3882L2.7729 0.448398C2.46514 0.163032 2.05199 0.00327148 1.62178 0.00327148C1.19157 0.00327148 0.778429 0.163032 0.470669 0.448398C0.321652 0.587002 0.203267 0.752438 0.122448 0.93502C0.0416285 1.1176 0 1.31366 0 1.5117C0 1.70975 0.0416285 1.90581 0.122448 2.08839C0.203267 2.27097 0.321652 2.43641 0.470669 2.57501L18.7954 19.5356C19.1172 19.8333 19.5488 20 19.9982 20C20.4476 20 20.8792 19.8333 21.201 19.5356L39.5258 2.57828C39.6759 2.43958 39.7952 2.27373 39.8766 2.09055C39.958 1.90736 40 1.71054 40 1.5117C40 1.31287 39.958 1.11605 39.8766 0.932862C39.7952 0.749675 39.6759 0.583833 39.5258 0.445125C39.218 0.159759 38.8049 0 38.3747 0C37.9445 0 37.5313 0.159759 37.2236 0.445125V0.448398Z" fill="#CCCCCC"/>
</svg>
