<svg width="200" height="213" viewBox="0 0 200 213" fill="none" xmlns="http://www.w3.org/2000/svg">
<path opacity="0.1" d="M25 250C18.125 250 12.2375 247.55 7.33752 242.65C2.43752 237.75 -0.00831211 231.867 2.12224e-05 225V25C2.12224e-05 18.125 2.45002 12.2375 7.35002 7.33752C12.25 2.43752 18.1334 -0.00831211 25 2.12224e-05H175C181.875 2.12224e-05 187.762 2.45002 192.662 7.35002C197.562 12.25 200.008 18.1334 200 25V225C200 231.875 197.55 237.762 192.65 242.662C187.75 247.562 181.867 250.008 175 250H25ZM25 225H175V25H150V112.5L118.75 93.75L87.5 112.5V25H25V225Z" fill="black"/>
</svg>
