<svg width="244" height="244" viewBox="0 0 244 244" fill="none" xmlns="http://www.w3.org/2000/svg">
<rect x="2" y="2" width="240" height="240" rx="120" fill="white"/>
<path d="M122 44.8691C135.203 44.8691 147.866 50.1141 157.202 59.4502C166.538 68.7863 171.783 81.4488 171.783 94.652C171.783 107.855 166.538 120.518 157.202 129.854C147.866 139.19 135.203 144.435 122 144.435C108.797 144.435 96.1342 139.19 86.7981 129.854C77.462 120.518 72.2171 107.855 72.2171 94.652C72.2171 81.4488 77.462 68.7863 86.7981 59.4502C96.1342 50.1141 108.797 44.8691 122 44.8691ZM122 244.001C122 244.001 221.566 244.001 221.566 219.109C221.566 189.239 173.027 156.881 122 156.881C70.9725 156.881 22.4342 189.239 22.4342 219.109C22.4342 244.001 122 244.001 122 244.001Z" fill="#C20002"/>
<rect x="2" y="2" width="240" height="240" rx="120" stroke="#C20002" stroke-width="4"/>
</svg>
